<svg width="70" height="70" viewBox="0 0 70 70" fill="none" xmlns="http://www.w3.org/2000/svg">
<circle cx="35" cy="35" r="35" fill="#E8F7FF"/>
<path d="M23.6167 51.3833L23.7228 51.2772L23.6167 51.3833C23.8676 51.6341 24.2078 51.775 24.5625 51.775H45.9375C46.2922 51.775 46.6324 51.6341 46.8833 51.3833C47.1341 51.1324 47.275 50.7922 47.275 50.4375V19.5625C47.275 19.2078 47.1341 18.8676 46.8833 18.6167C46.6324 18.3659 46.2922 18.225 45.9375 18.225H24.5625C24.2078 18.225 23.8676 18.3659 23.6167 18.6167C23.3659 18.8676 23.225 19.2078 23.225 19.5625V50.4375C23.225 50.7922 23.3659 51.1324 23.6167 51.3833ZM24.5625 16.15H45.9375C46.8426 16.15 47.7105 16.5095 48.3505 17.1495C48.9905 17.7895 49.35 18.6574 49.35 19.5625V50.4375C49.35 51.3425 48.9905 52.2105 48.3505 52.8505C47.7105 53.4905 46.8426 53.85 45.9375 53.85H24.5625C23.6574 53.85 22.7895 53.4905 22.1495 52.8505C21.5095 52.2105 21.15 51.3425 21.15 50.4375V19.5625C21.15 18.6574 21.5095 17.7895 22.1495 17.1495C22.7895 16.5095 23.6574 16.15 24.5625 16.15Z" fill="#38B6FF" stroke="#E8F7FF" stroke-width="0.3"/>
<path d="M42.375 28.025H42.525V27.875V23.125V22.975H42.375H28.125H27.975V23.125V27.875V28.025H28.125H42.375ZM26.9375 20.9H43.5625C43.8377 20.9 44.1016 21.0093 44.2961 21.2039C44.4907 21.3984 44.6 21.6623 44.6 21.9375V29.0625C44.6 29.3377 44.4907 29.6016 44.2961 29.7961C44.1016 29.9907 43.8377 30.1 43.5625 30.1H26.9375C26.6623 30.1 26.3984 29.9907 26.2039 29.7961C26.0093 29.6016 25.9 29.3377 25.9 29.0625V21.9375C25.9 21.6623 26.0093 21.3984 26.2039 21.2039C26.3984 21.0093 26.6623 20.9 26.9375 20.9Z" fill="#38B6FF" stroke="#E8F7FF" stroke-width="0.3"/>
<path d="M42.375 39.9H42.525V39.75V35V34.85H42.375H36.4375H36.2875V35V39.75V39.9H36.4375H42.375ZM34.2125 35V34.85H34.0625H28.125H27.975V35V39.75V39.9H28.125H34.0625H34.2125V39.75V35ZM28.125 41.975H27.975V42.125V46.875V47.025H28.125H34.0625H34.2125V46.875V42.125V41.975H34.0625H28.125ZM36.2875 46.875V47.025H36.4375H42.375H42.525V46.875V42.125V41.975H42.375H36.4375H36.2875V42.125V46.875ZM26.9375 32.775H43.5625C43.8377 32.775 44.1016 32.8843 44.2961 33.0789C44.4907 33.2734 44.6 33.5373 44.6 33.8125V48.0625C44.6 48.3377 44.4907 48.6016 44.2961 48.7961C44.1016 48.9907 43.8377 49.1 43.5625 49.1H26.9375C26.6623 49.1 26.3984 48.9907 26.2039 48.7961C26.0093 48.6016 25.9 48.3377 25.9 48.0625V33.8125C25.9 33.5373 26.0093 33.2734 26.2039 33.0789C26.3984 32.8843 26.6623 32.775 26.9375 32.775Z" fill="#38B6FF" stroke="#E8F7FF" stroke-width="0.3"/>
</svg>
