<svg width="70" height="70" viewBox="0 0 70 70" fill="none" xmlns="http://www.w3.org/2000/svg">
<circle cx="35" cy="35" r="35" fill="#E8F7FF"/>
<path d="M19.1816 15.85H50.8262C52.6597 15.85 54.1578 17.3474 54.15 19.1816C54.15 19.1819 54.15 19.1821 54.15 19.1823M19.1816 15.85L54 19.1816M19.1816 15.85C17.3477 15.85 15.85 17.3477 15.85 19.1816V50.8183C15.85 52.6523 17.3477 54.15 19.1816 54.15H50.8183C52.6523 54.15 54.15 52.6523 54.15 50.8183L54.15 19.1823M19.1816 15.85L54.15 19.1823M54.15 19.1823L54 19.1816M54 19.1816V50.8183C54 52.5694 52.5694 54 50.8183 54H19.1816C17.4306 54 16 52.5694 16 50.8183V19.1816C16 17.4306 17.4306 16 19.1816 16H50.8262C52.5772 16 54.0078 17.4306 54 19.1816ZM51.9738 50.8262V50.9607C51.9068 51.5341 51.417 51.9817 50.8262 51.9817H19.1816C18.5453 51.9817 18.0262 51.4625 18.0262 50.8262V19.1816C18.0262 18.5453 18.5453 18.0262 19.1816 18.0262H50.8183C51.4547 18.0262 51.9738 18.5453 51.9738 19.1816V50.8262Z" fill="#38B6FF" stroke="#38B6FF" stroke-width="0.3"/>
<path d="M26.9363 42.1081L24.2203 39.3922C23.7943 38.9662 23.1053 38.9662 22.6793 39.3922C22.2533 39.8181 22.2533 40.5072 22.6793 40.9332L25.3952 43.6492L22.6793 46.3652C22.2533 46.7912 22.2533 47.4803 22.6793 47.9063C22.8884 48.1154 23.1694 48.2238 23.4498 48.2238C23.7321 48.2238 24.0034 48.1142 24.2181 47.9085L24.2181 47.9085L24.2203 47.9063L26.9363 45.1903L29.6523 47.9063C29.8614 48.1154 30.1424 48.2238 30.4228 48.2238C30.7051 48.2238 30.9765 48.1142 31.1911 47.9085L31.1911 47.9085L31.1934 47.9063C31.6194 47.4803 31.6194 46.7912 31.1934 46.3652L28.4774 43.6492L31.1934 40.9332C31.6194 40.5072 31.6194 39.8181 31.1934 39.3922C30.7674 38.9662 30.0783 38.9662 29.6523 39.3922L26.9363 42.1081Z" fill="#38B6FF" stroke="#38B6FF" stroke-width="0.3"/>
<path d="M31.8699 26.146H28.0331V22.3092C28.0331 21.7104 27.5438 21.2211 26.945 21.2211C26.3462 21.2211 25.8569 21.7104 25.8569 22.3092V26.146H22.0201C21.4213 26.146 20.932 26.6353 20.932 27.2341C20.932 27.8329 21.4213 28.3222 22.0201 28.3222H25.8569V32.159C25.8569 32.7578 26.3462 33.2471 26.945 33.2471C27.5438 33.2471 28.0331 32.7578 28.0331 32.159V28.3222H31.8699C32.4687 28.3222 32.958 27.8329 32.958 27.2341C32.958 26.6353 32.4687 26.146 31.8699 26.146Z" fill="#38B6FF" stroke="#38B6FF" stroke-width="0.3"/>
<path d="M47.5741 44.8598H39.1705C38.5717 44.8598 38.0824 45.3491 38.0824 45.9478C38.0824 46.5466 38.5717 47.0359 39.1705 47.0359H47.5663C48.1651 47.0359 48.6544 46.5466 48.6544 45.9478C48.6544 45.3507 48.1745 44.8598 47.5741 44.8598Z" fill="#38B6FF" stroke="#38B6FF" stroke-width="0.3"/>
<path d="M47.5741 40.2562H39.1705C38.5717 40.2562 38.0824 40.7455 38.0824 41.3443C38.0824 41.9431 38.5717 42.4324 39.1705 42.4324H47.5663C48.1651 42.4324 48.6544 41.9431 48.6544 41.3443C48.6544 40.7472 48.1745 40.2562 47.5741 40.2562Z" fill="#38B6FF" stroke="#38B6FF" stroke-width="0.3"/>
<path d="M46.8476 28.3211C47.4463 28.3211 47.9356 27.8318 47.9356 27.233C47.9356 26.6342 47.4463 26.1449 46.8476 26.1449H38.4439C37.8452 26.1449 37.3559 26.6342 37.3559 27.233C37.3559 27.8318 37.8452 28.3211 38.4439 28.3211H46.8476Z" fill="#38B6FF" stroke="#38B6FF" stroke-width="0.3"/>
</svg>
