<svg width="70" height="70" viewBox="0 0 70 70" fill="none" xmlns="http://www.w3.org/2000/svg">
<circle cx="35" cy="35" r="35" fill="#E8F7FF"/>
<path d="M44.3333 19L45.3115 20.9563C45.7319 21.7971 45.942 22.2174 46.2229 22.5817C46.4719 22.9049 46.7617 23.1947 47.085 23.4438C47.4492 23.7246 47.8696 23.9348 48.7103 24.3552L50.6667 25.3333L48.7103 26.3115C47.8696 26.7319 47.4492 26.942 47.085 27.2228C46.7617 27.472 46.4719 27.7618 46.2229 28.085C45.942 28.4493 45.7319 28.8696 45.3115 29.7103L44.3333 31.6667L43.3552 29.7103C42.9348 28.8696 42.7247 28.4493 42.4438 28.085C42.1947 27.7618 41.905 27.472 41.5817 27.2228C41.2175 26.942 40.7971 26.7319 39.9564 26.3115L38 25.3333L39.9564 24.3552C40.7971 23.9348 41.2175 23.7246 41.5817 23.4438C41.905 23.1947 42.1947 22.9049 42.4438 22.5817C42.7247 22.2174 42.9348 21.7971 43.3552 20.9563L44.3333 19Z" stroke="#38B6FF" stroke-width="2.2" stroke-linecap="round" stroke-linejoin="round"/>
<path d="M49.0833 37.0318C47.0076 40.6729 43.0896 43.1279 38.5983 43.1279C31.9376 43.1279 26.5379 37.7283 26.5379 31.0674C26.5379 26.5758 28.9932 22.6577 32.6349 20.582C24.9847 21.3074 19 27.7497 19 35.5897C19 43.9158 25.7496 50.6654 34.0757 50.6654C41.9154 50.6654 48.3574 44.6813 49.0833 37.0318Z" stroke="#38B6FF" stroke-width="2.2" stroke-linecap="round" stroke-linejoin="round"/>
</svg>
