<svg width="70" height="70" viewBox="0 0 70 70" fill="none" xmlns="http://www.w3.org/2000/svg">
<circle cx="35" cy="35" r="35" fill="#E8F7FF"/>
<path d="M57.4647 28.3757L57.4661 28.3746C57.6373 28.2462 57.7383 28.038 57.7683 27.8277C57.7984 27.6175 57.7598 27.3893 57.6314 27.218L57.5514 27.278L57.6314 27.218C57.5029 27.0468 57.2947 26.9458 57.0845 26.9158C56.8744 26.8858 56.6465 26.9242 56.4753 27.0523C56.4751 27.0525 56.4749 27.0526 56.4748 27.0527L50.4318 31.441L43.9999 27.2961V19.7261C43.9999 19.4855 43.9193 19.2773 43.7709 19.129C43.6226 18.9806 43.4144 18.9 43.1738 18.9C42.9332 18.9 42.725 18.9806 42.5766 19.129C42.4283 19.2773 42.3477 19.4855 42.3477 19.7261V27.3871L35.9487 31.5465L29.4772 27.34V19.7262C29.4772 19.4856 29.3965 19.2774 29.2482 19.129C29.0998 18.9807 28.8916 18.9001 28.651 18.9001C28.4105 18.9001 28.2022 18.9807 28.0539 19.129C27.9055 19.2774 27.8249 19.4856 27.8249 19.7262V27.3687L21.3878 31.5171L15.2689 27.8458L15.2175 27.9315L15.2689 27.8458C14.8664 27.6043 14.3659 27.6799 14.1151 28.0979L14.111 28.1048L14.108 28.1122C13.95 28.5072 14.0233 29.0015 14.4395 29.2515C14.4396 29.2516 14.4397 29.2517 14.4398 29.2517L20.5635 32.994V40.0716L14.3601 44.5517L14.3601 44.5517L14.3586 44.5528C14.1874 44.6812 14.0865 44.8894 14.0564 45.0997C14.0264 45.31 14.0649 45.5381 14.1934 45.7094L14.1934 45.7094C14.3218 45.8806 14.53 45.9816 14.7403 46.0116C14.9503 46.0416 15.1781 46.0032 15.3493 45.8752C15.3496 45.875 15.3498 45.8748 15.35 45.8747L21.3929 41.4864L27.8248 45.6313V53.2739C27.8248 53.5145 27.9055 53.7227 28.0538 53.871C28.2022 54.0194 28.4104 54.1 28.651 54.1C29.1483 54.1 29.4771 53.6855 29.4771 53.2739V45.7327L36.0045 41.4899L42.3476 45.6129V53.2739C42.3476 53.5145 42.4282 53.7227 42.5766 53.871C42.7249 54.0194 42.9331 54.1 43.1737 54.1C43.6768 54.1 43.9998 53.6792 43.9998 53.2012V45.7327L50.4885 41.515L56.5551 45.2264L56.5559 45.2268C56.9585 45.4683 57.4589 45.3926 57.7097 44.9747C57.9511 44.5723 57.8756 44.0721 57.4581 43.8212C57.4579 43.8211 57.4577 43.821 57.4576 43.8209L51.334 40.0787V32.8034L57.4647 28.3757ZM36.8111 40.123V32.877L43.1738 28.7767L49.6091 32.9238V40.0762L43.1738 44.2233L36.8111 40.123ZM35.0862 32.9238V40.0762L28.651 44.2233L22.2157 40.0762V32.9238L28.651 28.7767L35.0862 32.9238Z" fill="#38B6FF" stroke="#38B6FF" stroke-width="0.2"/>
<path d="M24.1928 36.4994C24.1928 38.9509 26.1982 40.9563 28.6497 40.9563C31.1012 40.9563 33.1065 38.9509 33.1065 36.4994C33.1065 34.0479 31.1012 32.0426 28.6497 32.0426C26.1982 32.0426 24.1928 34.0479 24.1928 36.4994ZM31.4543 36.4994C31.4543 38.0417 30.192 39.304 28.6498 39.304C27.1075 39.304 25.8452 38.0417 25.8452 36.4994C25.8452 34.9572 27.1075 33.6949 28.6498 33.6949C30.192 33.6948 31.4543 34.9571 31.4543 36.4994Z" fill="#38B6FF" stroke="#38B6FF" stroke-width="0.2"/>
<path d="M47.63 36.4994C47.63 34.0479 45.6246 32.0426 43.1731 32.0426C40.7216 32.0426 38.7163 34.0479 38.7163 36.4994C38.7163 38.9509 40.7216 40.9563 43.1731 40.9563C45.6246 40.9563 47.63 38.9509 47.63 36.4994ZM40.3686 36.4994C40.3686 34.9572 41.6309 33.6949 43.1731 33.6949C44.7154 33.6949 45.9777 34.9572 45.9777 36.4994C45.9777 38.0417 44.7154 39.304 43.1731 39.304C41.6309 39.304 40.3686 38.0417 40.3686 36.4994Z" fill="#38B6FF" stroke="#38B6FF" stroke-width="0.2"/>
</svg>
