<svg width="50" height="50" viewBox="0 0 50 50" fill="none" xmlns="http://www.w3.org/2000/svg">
<path d="M24.9998 43.75L24.7913 43.4373C23.3442 41.2667 22.6207 40.1812 21.6646 39.3954C20.8183 38.6998 19.8431 38.1779 18.7949 37.8596C17.6108 37.5 16.3063 37.5 13.6974 37.5H10.8332C8.49961 37.5 7.33284 37.5 6.44155 37.0458C5.65752 36.6465 5.02011 36.009 4.62065 35.225C4.1665 34.3338 4.1665 33.1669 4.1665 30.8333V12.9167C4.1665 10.5831 4.1665 9.41633 4.62065 8.52504C5.02011 7.74102 5.65752 7.1036 6.44155 6.70415C7.33284 6.25 8.49961 6.25 10.8332 6.25H11.6665C16.3336 6.25 18.6672 6.25 20.4498 7.15827C22.0178 7.95723 23.2925 9.23206 24.0915 10.8001C24.9998 12.5827 24.9998 14.9162 24.9998 19.5833M24.9998 43.75V19.5833M24.9998 43.75L25.2084 43.4373C26.6555 41.2667 27.379 40.1812 28.335 39.3954C29.1813 38.6998 30.1565 38.1779 31.2048 37.8596C32.3888 37.5 33.6934 37.5 36.3023 37.5H39.1665C41.5 37.5 42.6669 37.5 43.5582 37.0458C44.3421 36.6465 44.9796 36.009 45.379 35.225C45.8332 34.3338 45.8332 33.1669 45.8332 30.8333V12.9167C45.8332 10.5831 45.8332 9.41633 45.379 8.52504C44.9796 7.74102 44.3421 7.1036 43.5582 6.70415C42.6669 6.25 41.5 6.25 39.1665 6.25H38.3332C33.6661 6.25 31.3325 6.25 29.5498 7.15827C27.9819 7.95723 26.7071 9.23206 25.9082 10.8001C24.9998 12.5827 24.9998 14.9162 24.9998 19.5833" stroke="#38B6FF" stroke-width="4.16667" stroke-linecap="round" stroke-linejoin="round"/>
</svg>
