<svg width="70" height="70" viewBox="0 0 70 70" fill="none" xmlns="http://www.w3.org/2000/svg">
<circle cx="35" cy="35" r="35" fill="#E8F7FF"/>
<path d="M37.6483 21.6671L37.6986 21.6687C45.9261 21.9494 52.4776 28.7106 52.4776 36.9707C52.4776 45.4266 45.6228 52.2814 37.1669 52.2814C28.8834 52.2814 22.108 45.693 21.8624 37.4344C21.8471 36.9193 21.4171 36.5141 20.9019 36.5294C20.3868 36.5447 19.9816 36.9748 19.9969 37.4899L20.1468 37.4855L19.9969 37.4899C20.2725 46.7565 27.8736 54.1478 37.1669 54.1478C46.6535 54.1478 54.3439 46.4574 54.3439 36.9707C54.3439 27.6848 46.9642 20.0876 37.7059 19.8016C37.1908 19.7857 36.7603 20.1904 36.7444 20.7055C36.7284 21.2207 37.1332 21.6512 37.6483 21.6671Z" fill="#38B6FF" stroke="#38B6FF" stroke-width="0.3"/>
<path d="M32.2792 16.7423V32.2792H16.7423C17.2089 23.9116 23.9116 17.2089 32.2792 16.7423ZM33.2124 14.85C23.071 14.85 14.85 23.071 14.85 33.2123C14.85 33.7277 15.2678 34.1455 15.7832 34.1455H33.2124C33.7277 34.1455 34.1455 33.7277 34.1455 33.2123V15.7832C34.1455 15.2678 33.7277 14.85 33.2124 14.85Z" fill="#38B6FF" stroke="#38B6FF" stroke-width="0.3"/>
<path d="M36.5488 20.7519V36.2619C36.5488 36.3927 36.438 36.5035 36.3072 36.5035H20.9668C20.4514 36.5035 20.0336 36.9213 20.0336 37.4367C20.0336 37.9521 20.4514 38.3699 20.9668 38.3699H36.3072C37.4687 38.3699 38.4152 37.4234 38.4152 36.2619V20.7519C38.4152 20.2365 37.9974 19.8187 37.482 19.8187C36.9666 19.8187 36.5488 20.2365 36.5488 20.7519Z" fill="#38B6FF" stroke="#38B6FF" stroke-width="0.3"/>
</svg>
