<svg width="70" height="70" viewBox="0 0 70 70" fill="none" xmlns="http://www.w3.org/2000/svg">
<circle cx="35" cy="35" r="35" fill="#E8F7FF"/>
<path d="M35.9879 53.9947C32.3119 53.9955 28.7479 52.8319 25.8964 50.7001C23.045 48.5682 21.0803 45.5984 20.3334 42.2909C19.5865 38.9833 20.1031 35.5404 21.7962 32.542C23.4892 29.5436 26.2552 27.1731 29.6281 25.8299L30.6 27.9104C27.6905 29.0683 25.3151 31.1271 23.8871 33.7284C22.4592 36.3297 22.0692 39.3088 22.785 42.1471C23.5008 44.9854 25.277 47.5032 27.8046 49.2622C30.3322 51.0211 33.451 51.9099 36.6181 51.7738C39.7853 51.6376 42.8002 50.4852 45.1381 48.5171C47.4759 46.549 48.9887 43.8899 49.4131 41.0026C49.8374 38.1153 49.1465 35.1826 47.4605 32.7151C45.7745 30.2477 43.2003 28.4016 40.1859 27.4983L40.941 25.3477C44.565 26.4252 47.6509 28.657 49.6423 31.6407C51.6337 34.6243 52.3997 38.1636 51.8021 41.6204C51.2045 45.0772 49.2827 48.2241 46.3831 50.4938C43.4835 52.7635 39.7969 54.0067 35.9879 53.9992V53.9947Z" fill="#38B6FF"/>
<path d="M30.1224 27.9985C29.7957 27.9985 29.4824 27.8792 29.2514 27.667C29.0204 27.4547 28.8906 27.1668 28.8906 26.8666V16H41.8074V26.4138C41.8074 26.714 41.6776 27.0019 41.4466 27.2142C41.2156 27.4265 40.9023 27.5457 40.5756 27.5457C40.2489 27.5457 39.9355 27.4265 39.7045 27.2142C39.4735 27.0019 39.3438 26.714 39.3438 26.4138V18.2639H31.3542V26.8666C31.3542 27.1668 31.2244 27.4547 30.9934 27.667C30.7624 27.8792 30.4491 27.9985 30.1224 27.9985Z" fill="#38B6FF"/>
<path d="M22.7973 43.4907L20.7168 42.2772C20.9127 41.9931 25.6305 35.3464 37.2465 37.6035C47.1391 39.5278 50.0043 37.8197 50.0314 37.8038L51.5404 39.5923C51.2004 39.8436 47.8955 41.992 36.7365 39.8187C26.8635 37.8899 22.9575 43.2609 22.7973 43.4907Z" fill="#38B6FF"/>
</svg>
