<svg width="70" height="70" viewBox="0 0 70 70" fill="none" xmlns="http://www.w3.org/2000/svg">
<circle cx="35" cy="35" r="35" fill="#E8F7FF"/>
<path d="M49.1678 37.1116L54 34.2998L52.7381 32.0972L47.9059 34.909L42.7147 31.8883V25.847L47.547 23.0352L46.2851 20.8326L41.4529 23.6444L36.2617 20.6236V15H33.7381V20.6237L28.547 23.6444L23.7147 20.8325L22.4529 23.0351L27.2852 25.847V31.8883L22.0941 34.909L17.2618 32.0971L16 34.2997L20.8323 37.1116V43.1528L16 45.9648L17.2618 48.1674L22.0839 45.3615L27.2851 48.3775V54H29.8087V48.3763L34.9897 45.3615L40.1909 48.3775V54H42.7145V48.3763L47.9057 45.3556L52.7379 48.1675L53.9998 45.9649L49.1675 43.153V37.1116H49.1678ZM29.8088 25.847L35 22.8264L40.1911 25.847V31.8883L34.9989 34.9096L29.8089 31.9L29.8088 25.847ZM28.5459 46.1743L23.3559 43.1647V37.1116L28.5368 34.0969L33.7382 37.1129V43.1529L28.5459 46.1743ZM46.6441 43.153L41.4518 46.1743L36.2618 43.1646V37.1116L41.453 34.091L46.2852 36.9028L46.6441 37.1116V43.1528V43.153Z" fill="#38B6FF"/>
</svg>
