<svg width="70" height="70" viewBox="0 0 70 70" fill="none" xmlns="http://www.w3.org/2000/svg">
<circle cx="35" cy="35" r="35" fill="#E8F7FF"/>
<path d="M50.1831 17.8375L50.0217 18.1481C49.1658 17.7034 48.2417 17.5201 47.2014 17.4337C46.1963 17.3502 44.9565 17.35 43.4291 17.35H27.7635C26.2361 17.35 24.9964 17.3502 23.9913 17.4337C22.9509 17.5201 22.0269 17.7034 21.1709 18.1481L21.019 17.8558L21.1709 18.1481C19.8762 18.8206 18.8206 19.8762 18.1481 21.1709L17.85 21.0161L18.1481 21.1709C17.7034 22.0269 17.5201 22.9509 17.4337 23.9913L50.1831 17.8375ZM50.1831 17.8375L50.0218 18.1481C51.3165 18.8206 52.3721 19.8762 53.0447 21.1709C53.4892 22.0269 53.6726 22.9509 53.7589 23.9913L53.7589 23.9913M50.1831 17.8375L53.7589 23.9913M53.7589 23.9913C53.8424 24.9964 53.8426 26.2362 53.8426 27.7636V34.1309C53.8426 35.6583 53.8424 36.8981 53.7589 37.9032L53.7589 37.9033L53.7589 23.9913ZM23.9913 44.4609C24.9965 44.5442 26.2362 44.5445 27.7635 44.5445H33.7367H34.0867V44.8945V48.6137V48.9637H33.7367H26.2982C25.4644 48.9637 24.7885 49.6396 24.7885 50.4734C24.7885 51.3071 25.4644 51.983 26.2982 51.983H44.8945C45.7283 51.983 46.4041 51.3072 46.4041 50.4734C46.4041 49.6396 45.7283 48.9637 44.8945 48.9637H37.456H37.106V48.6137V44.8945V44.5445H37.456H43.4291C44.9564 44.5445 46.1962 44.5442 47.2014 44.4609C48.2417 44.3744 49.1658 44.191 50.0218 43.7465C51.3165 43.074 52.3721 42.0183 53.0446 40.7236C53.0446 40.7236 53.0447 40.7236 53.0447 40.7236L53.3553 40.8849L23.9913 44.4609ZM23.9913 44.4609C22.9509 44.3744 22.0269 44.191 21.1709 43.7465C19.8762 43.0739 18.8206 42.0183 18.1481 40.7236L18.1481 40.7236C17.7034 39.8676 17.5201 38.9435 17.4337 37.9032C17.3502 36.8981 17.35 35.6583 17.35 34.1309V27.7635C17.35 26.2361 17.3502 24.9964 17.4337 23.9913L23.9913 44.4609ZM22.5627 20.8274L22.5627 20.8274C22.916 20.6439 23.3909 20.5132 24.2412 20.4426M22.5627 20.8274L48.4685 40.7564M22.5627 20.8274C21.8195 21.2135 21.2135 21.8195 20.8274 22.5627L20.8274 22.5627M22.5627 20.8274L20.8274 22.5627M24.2412 20.4426L24.2701 20.7914L24.2412 20.4426C24.2412 20.4426 24.2412 20.4426 24.2412 20.4426ZM24.2412 20.4426C25.1097 20.3705 26.2279 20.3693 27.8417 20.3693H43.351C44.9647 20.3693 46.0829 20.3705 46.9514 20.4426C47.8017 20.5132 48.2767 20.6439 48.6299 20.8274C49.3731 21.2135 49.9792 21.8194 50.3652 22.5627C50.5487 22.916 50.6794 23.391 50.75 24.2412C50.8222 25.1097 50.8234 26.2279 50.8234 27.8417V34.0528C50.8234 35.6665 50.8222 36.7847 50.75 37.6532C50.6794 38.5034 50.5488 38.9785 50.3652 39.3316C49.9792 40.0749 49.3731 40.6811 48.6298 41.067M48.6298 41.067L48.4685 40.7564M48.6298 41.067C48.6299 41.067 48.6299 41.067 48.63 41.067L48.4685 40.7564M48.6298 41.067C48.2766 41.2506 47.8015 41.3813 46.9514 41.4519C46.0829 41.524 44.9647 41.5252 43.351 41.5252H27.8417C26.2279 41.5252 25.1097 41.524 24.2412 41.4519C23.391 41.3812 22.916 41.2506 22.5627 41.067M48.4685 40.7564C48.1738 40.9097 47.7509 41.0343 46.9224 41.1031C46.0718 41.1737 44.9707 41.1752 43.351 41.1752H27.8417C26.2219 41.1752 25.1208 41.1737 24.2701 41.1031C23.4418 41.0343 23.0189 40.9097 22.724 40.7564M22.5627 41.067C22.5627 41.067 22.5627 41.067 22.5627 41.067L22.724 40.7564M22.5627 41.067C21.8194 40.681 21.2135 40.0749 20.8274 39.3317M22.5627 41.067L22.724 40.7564M22.724 40.7564L20.8274 39.3317M20.8274 39.3317C20.8274 39.3317 20.8274 39.3317 20.8274 39.3317L21.1377 39.1705L20.8274 39.3317ZM20.8274 39.3317C20.6439 38.9785 20.5132 38.5035 20.4426 37.6532M20.8274 39.3317L20.4426 37.6532M20.8274 22.5627C20.6439 22.916 20.5132 23.3909 20.4426 24.2412M20.8274 22.5627L20.4426 24.2412M20.4426 24.2412C20.3705 25.1097 20.3693 26.2279 20.3693 27.8417M20.4426 24.2412L20.3693 27.8417M20.3693 27.8417V34.0528M20.3693 27.8417V34.0528M20.3693 34.0528C20.3693 35.6665 20.3705 36.7847 20.4426 37.6532M20.3693 34.0528L20.4426 37.6532" fill="#38B6FF" stroke="#E8F7FF" stroke-width="0.7"/>
<path d="M32.0461 36.8432C33.0193 37.635 34.2294 38.0765 35.4819 38.0986V38.1009L35.5817 38.1011C36.9163 38.104 38.208 37.63 39.224 36.7645C40.2399 35.8991 40.9133 34.6992 41.1227 33.3811C41.3321 32.063 41.0637 30.7135 40.366 29.5759C39.6682 28.4382 38.587 27.5872 37.3172 27.1763L37.222 27.1455L37.1912 27.2408L36.9314 28.0462L36.9008 28.141L36.9955 28.172C38.0106 28.503 38.8775 29.1795 39.4452 30.0837C40.0129 30.9879 40.2456 32.0626 40.1027 33.1207C39.9598 34.1787 39.4504 35.1532 38.6631 35.8744C37.8759 36.5956 36.8606 37.018 35.7941 37.0678C34.7276 37.1177 33.6773 36.792 32.8262 36.1474C31.9751 35.5029 31.3769 34.5802 31.1359 33.5401C30.8948 32.5 31.0262 31.4083 31.507 30.455C31.9879 29.5017 32.7878 28.7473 33.7675 28.323L33.859 28.2833L33.8197 28.1917L33.4852 27.4126L33.4456 27.3204L33.3536 27.3603C32.1718 27.8725 31.2026 28.7763 30.6094 29.9196C30.0162 31.0629 29.8352 32.3757 30.0969 33.6368C30.3586 34.898 31.047 36.0304 32.0461 36.8432Z" fill="#38B6FF" stroke="#38B6FF" stroke-width="0.2"/>
<path d="M33.1389 23.6695H33.0389V23.7695V27.8389C33.0389 27.9779 33.0941 28.1111 33.1924 28.2094C33.2906 28.3076 33.4239 28.3628 33.5628 28.3628C33.7018 28.3628 33.835 28.3076 33.9333 28.2094C34.0315 28.1111 34.0867 27.9779 34.0867 27.8389V24.7173H36.6361V27.6694C36.6361 27.8083 36.6913 27.9416 36.7895 28.0398C36.8878 28.1381 37.021 28.1933 37.16 28.1933C37.2989 28.1933 37.4322 28.1381 37.5304 28.0398C37.6287 27.9416 37.6839 27.8083 37.6839 27.6694V23.7695V23.6695H37.5839H33.1389Z" fill="#38B6FF" stroke="#38B6FF" stroke-width="0.2"/>
<path d="M30.9866 34.1495L31.0707 34.2028L31.1244 34.119C31.1461 34.085 31.4848 33.5747 32.2335 33.1619C32.9798 32.7503 34.1406 32.4315 35.8162 32.7877L35.8162 32.7877C39.6711 33.6047 40.8441 32.8037 40.994 32.6831L41.0706 32.6215L41.0104 32.5439L40.4911 31.8741L40.4353 31.8021L40.3584 31.851L40.3564 31.8523L40.3494 31.8563C40.3427 31.8601 40.3319 31.866 40.3165 31.8734C40.2859 31.8881 40.2371 31.9092 40.1675 31.9327C40.0282 31.9797 39.805 32.0363 39.475 32.0709C38.8147 32.1401 37.7279 32.1213 36.0332 31.7625L36.0332 31.7625C34.01 31.3347 32.5795 31.7499 31.6445 32.2921C30.7119 32.8328 30.2786 33.4958 30.2397 33.5571L30.1863 33.6415L30.2706 33.695L30.9866 34.1495Z" fill="#38B6FF" stroke="#38B6FF" stroke-width="0.2"/>
</svg>
