<svg width="140" height="140" viewBox="0 0 140 140" fill="none" xmlns="http://www.w3.org/2000/svg">
<circle cx="70" cy="70" r="70" fill="#E8F7FF"/>
<path d="M97.9416 94.8835H47.0514L54.7584 84.2018C58.2797 85.3301 61.9872 83.3633 63.1119 79.9277H68.7703C69.6384 82.5798 72.135 84.5012 75.0735 84.5012C79.6682 84.5012 82.8947 79.905 81.2968 75.5784L89.6974 68.9465C90.8876 69.7407 92.3474 70.1612 93.9085 70.0366C97.1392 69.7788 99.7394 67.1649 99.9806 63.9328C100.271 60.0483 97.192 56.7948 93.3677 56.7948C88.7729 56.7948 85.5464 61.391 87.1443 65.7176L78.7438 72.3496C75.1072 69.9234 70.1359 71.6396 68.7703 75.8113H63.0822C62.0159 72.5541 58.493 70.3987 54.7122 71.5523C52.6665 72.1764 51.0576 73.8043 50.4468 75.8538C49.7872 78.0673 50.2625 80.1867 51.4234 81.7746L45.1162 90.5165V42.1123C45.1162 41.0558 44.3421 40.129 43.2921 40.0129C42.0507 39.876 41 40.8445 41 42.0582V96.9417C41 98.0534 41.9061 99 43.0564 99C43.0572 99 43.0579 98.9999 43.0587 98.9999H97.8875C98.944 98.9999 99.8708 98.2259 99.9868 97.1758C100.124 95.9343 99.1554 94.8835 97.9416 94.8835ZM93.368 60.9665C94.7551 60.9665 95.8835 62.0949 95.8835 63.482C95.8835 64.869 94.755 65.9974 93.368 65.9974C91.9811 65.9974 90.8526 64.8689 90.8526 63.482C90.8526 62.095 91.981 60.9665 93.368 60.9665ZM75.0736 75.4095C76.4606 75.4095 77.589 76.5379 77.589 77.9249C77.589 79.312 76.4606 80.4404 75.0736 80.4404C73.6865 80.4404 72.558 79.3121 72.558 77.9249C72.558 76.5379 73.6865 75.4095 75.0736 75.4095ZM56.779 75.4095C58.1661 75.4095 59.2945 76.5379 59.2945 77.9249C59.2945 79.312 58.1661 80.4404 56.779 80.4404C55.3919 80.4404 54.2636 79.312 54.2636 77.9249C54.2636 76.5379 55.3919 75.4095 56.779 75.4095Z" fill="#38B6FF"/>
</svg>
