<svg width="100" height="100" viewBox="0 0 100 100" fill="none" xmlns="http://www.w3.org/2000/svg">
<circle cx="50" cy="50" r="50" fill="#E8F7FF"/>
<mask id="path-2-outside-1_4_8998" maskUnits="userSpaceOnUse" x="26" y="26" width="49" height="48" fill="black">
<rect fill="white" x="26" y="26" width="49" height="48"/>
<path d="M73.901 67.2412L71.8963 59.6311L71.8962 59.6307L71.896 59.6302L65.8816 36.7998L63.8767 29.1891C63.6767 28.4326 63.1898 27.7877 62.5228 27.3961C61.8558 27.0044 61.0632 26.898 60.3191 27.1002L52.8369 29.1394C52.5252 29.2249 52.2297 29.3627 51.9625 29.5471C51.7458 29.0011 51.3738 28.5334 50.8942 28.2037C50.4146 27.8741 49.8491 27.6975 49.2703 27.6967H41.5241C40.8085 27.697 40.1184 27.9673 39.5875 28.4553C39.0566 27.9673 38.3666 27.697 37.651 27.6967H29.9048C29.1347 27.6976 28.3963 28.0092 27.8518 28.5631C27.3072 29.117 27.0009 29.868 27 30.6513V70.0454C27.0009 70.8288 27.3072 71.5798 27.8518 72.1337C28.3963 72.6876 29.1347 72.9991 29.9048 73H37.651C38.3666 72.9998 39.0566 72.7295 39.5875 72.2414C40.1184 72.7295 40.8085 72.9998 41.5241 73H49.2703C50.0404 72.9991 50.7787 72.6876 51.3233 72.1337C51.8679 71.5798 52.1742 70.8288 52.1751 70.0454V38.0426L52.7876 40.3678L52.7877 40.3681L52.7878 40.3684L58.8023 63.199V63.1993L58.8024 63.1997L60.8071 70.8096C60.9056 71.1845 61.0757 71.536 61.3079 71.844C61.54 72.152 61.8296 72.4104 62.16 72.6045C62.4905 72.7985 62.8553 72.9244 63.2336 72.9749C63.6119 73.0254 63.9963 72.9995 64.3647 72.8988L71.847 70.8596C72.2155 70.7592 72.5609 70.5859 72.8635 70.3498C73.1661 70.1136 73.4201 69.8191 73.6108 69.4831C73.8016 69.1471 73.9254 68.7761 73.9751 68.3915C74.0249 68.0068 73.9998 67.6159 73.901 67.2412ZM54.9087 40.8095L64.2617 38.2606L69.775 59.1893L60.4223 61.7383L54.9087 40.8095ZM41.5241 29.6664H49.2703C49.527 29.6667 49.7731 29.7706 49.9546 29.9552C50.1361 30.1398 50.2382 30.3902 50.2385 30.6513V61.1818H40.5558V30.6513C40.5561 30.3902 40.6582 30.1398 40.8397 29.9552C41.0212 29.7706 41.2674 29.6667 41.5241 29.6664ZM29.9048 29.6664H37.651C37.9077 29.6667 38.1538 29.7706 38.3354 29.9552C38.5169 30.1398 38.619 30.3902 38.6193 30.6513V37.5453H28.9365V30.6513C28.9368 30.3902 29.0389 30.1398 29.2204 29.9552C29.402 29.7706 29.6481 29.6667 29.9048 29.6664ZM37.651 71.0303H29.9048C29.6481 71.03 29.402 70.9262 29.2204 70.7415C29.0389 70.5569 28.9368 70.3066 28.9365 70.0454V39.515H38.6193V70.0454C38.619 70.3066 38.5169 70.5569 38.3354 70.7415C38.1538 70.9262 37.9077 71.03 37.651 71.0303ZM49.2703 71.0303H41.5241C41.2674 71.03 41.0212 70.9262 40.8397 70.7415C40.6582 70.5569 40.5561 70.3066 40.5558 70.0454V63.1515H50.2385V70.0454C50.2382 70.3066 50.1361 70.5569 49.9546 70.7415C49.7731 70.9262 49.527 71.03 49.2703 71.0303ZM52.7501 31.5008C52.8134 31.3885 52.898 31.2902 52.9989 31.2114C53.0999 31.1326 53.2151 31.0749 53.3381 31.0418L60.8202 29.0026C60.9431 28.969 61.0712 28.9604 61.1973 28.9773C61.3233 28.9941 61.4449 29.0361 61.5551 29.1008C61.6652 29.1654 61.7617 29.2515 61.8391 29.3542C61.9165 29.4568 61.9733 29.5739 62.0061 29.6989L63.7605 36.3582L54.4076 38.9071L52.6534 32.2481C52.6201 32.1232 52.6115 31.9928 52.6281 31.8646C52.6447 31.7363 52.6862 31.6126 52.7501 31.5008ZM71.9337 68.4982C71.8704 68.6104 71.7858 68.7088 71.6849 68.7876C71.584 68.8664 71.4687 68.924 71.3457 68.9572L63.8636 70.9964C63.6155 71.0634 63.3515 71.0277 63.1293 70.8971C62.907 70.7666 62.7447 70.5518 62.6777 70.2998L60.9234 63.6407L70.2761 61.0917L72.0304 67.7509C72.0637 67.8758 72.0723 68.0061 72.0557 68.1344C72.0391 68.2627 71.9977 68.3863 71.9337 68.4982Z"/>
</mask>
<path d="M73.901 67.2412L71.8963 59.6311L71.8962 59.6307L71.896 59.6302L65.8816 36.7998L63.8767 29.1891C63.6767 28.4326 63.1898 27.7877 62.5228 27.3961C61.8558 27.0044 61.0632 26.898 60.3191 27.1002L52.8369 29.1394C52.5252 29.2249 52.2297 29.3627 51.9625 29.5471C51.7458 29.0011 51.3738 28.5334 50.8942 28.2037C50.4146 27.8741 49.8491 27.6975 49.2703 27.6967H41.5241C40.8085 27.697 40.1184 27.9673 39.5875 28.4553C39.0566 27.9673 38.3666 27.697 37.651 27.6967H29.9048C29.1347 27.6976 28.3963 28.0092 27.8518 28.5631C27.3072 29.117 27.0009 29.868 27 30.6513V70.0454C27.0009 70.8288 27.3072 71.5798 27.8518 72.1337C28.3963 72.6876 29.1347 72.9991 29.9048 73H37.651C38.3666 72.9998 39.0566 72.7295 39.5875 72.2414C40.1184 72.7295 40.8085 72.9998 41.5241 73H49.2703C50.0404 72.9991 50.7787 72.6876 51.3233 72.1337C51.8679 71.5798 52.1742 70.8288 52.1751 70.0454V38.0426L52.7876 40.3678L52.7877 40.3681L52.7878 40.3684L58.8023 63.199V63.1993L58.8024 63.1997L60.8071 70.8096C60.9056 71.1845 61.0757 71.536 61.3079 71.844C61.54 72.152 61.8296 72.4104 62.16 72.6045C62.4905 72.7985 62.8553 72.9244 63.2336 72.9749C63.6119 73.0254 63.9963 72.9995 64.3647 72.8988L71.847 70.8596C72.2155 70.7592 72.5609 70.5859 72.8635 70.3498C73.1661 70.1136 73.4201 69.8191 73.6108 69.4831C73.8016 69.1471 73.9254 68.7761 73.9751 68.3915C74.0249 68.0068 73.9998 67.6159 73.901 67.2412ZM54.9087 40.8095L64.2617 38.2606L69.775 59.1893L60.4223 61.7383L54.9087 40.8095ZM41.5241 29.6664H49.2703C49.527 29.6667 49.7731 29.7706 49.9546 29.9552C50.1361 30.1398 50.2382 30.3902 50.2385 30.6513V61.1818H40.5558V30.6513C40.5561 30.3902 40.6582 30.1398 40.8397 29.9552C41.0212 29.7706 41.2674 29.6667 41.5241 29.6664ZM29.9048 29.6664H37.651C37.9077 29.6667 38.1538 29.7706 38.3354 29.9552C38.5169 30.1398 38.619 30.3902 38.6193 30.6513V37.5453H28.9365V30.6513C28.9368 30.3902 29.0389 30.1398 29.2204 29.9552C29.402 29.7706 29.6481 29.6667 29.9048 29.6664ZM37.651 71.0303H29.9048C29.6481 71.03 29.402 70.9262 29.2204 70.7415C29.0389 70.5569 28.9368 70.3066 28.9365 70.0454V39.515H38.6193V70.0454C38.619 70.3066 38.5169 70.5569 38.3354 70.7415C38.1538 70.9262 37.9077 71.03 37.651 71.0303ZM49.2703 71.0303H41.5241C41.2674 71.03 41.0212 70.9262 40.8397 70.7415C40.6582 70.5569 40.5561 70.3066 40.5558 70.0454V63.1515H50.2385V70.0454C50.2382 70.3066 50.1361 70.5569 49.9546 70.7415C49.7731 70.9262 49.527 71.03 49.2703 71.0303ZM52.7501 31.5008C52.8134 31.3885 52.898 31.2902 52.9989 31.2114C53.0999 31.1326 53.2151 31.0749 53.3381 31.0418L60.8202 29.0026C60.9431 28.969 61.0712 28.9604 61.1973 28.9773C61.3233 28.9941 61.4449 29.0361 61.5551 29.1008C61.6652 29.1654 61.7617 29.2515 61.8391 29.3542C61.9165 29.4568 61.9733 29.5739 62.0061 29.6989L63.7605 36.3582L54.4076 38.9071L52.6534 32.2481C52.6201 32.1232 52.6115 31.9928 52.6281 31.8646C52.6447 31.7363 52.6862 31.6126 52.7501 31.5008ZM71.9337 68.4982C71.8704 68.6104 71.7858 68.7088 71.6849 68.7876C71.584 68.8664 71.4687 68.924 71.3457 68.9572L63.8636 70.9964C63.6155 71.0634 63.3515 71.0277 63.1293 70.8971C62.907 70.7666 62.7447 70.5518 62.6777 70.2998L60.9234 63.6407L70.2761 61.0917L72.0304 67.7509C72.0637 67.8758 72.0723 68.0061 72.0557 68.1344C72.0391 68.2627 71.9977 68.3863 71.9337 68.4982Z" fill="#38B6FF"/>
<path d="M73.901 67.2412L71.8963 59.6311L71.8962 59.6307L71.896 59.6302L65.8816 36.7998L63.8767 29.1891C63.6767 28.4326 63.1898 27.7877 62.5228 27.3961C61.8558 27.0044 61.0632 26.898 60.3191 27.1002L52.8369 29.1394C52.5252 29.2249 52.2297 29.3627 51.9625 29.5471C51.7458 29.0011 51.3738 28.5334 50.8942 28.2037C50.4146 27.8741 49.8491 27.6975 49.2703 27.6967H41.5241C40.8085 27.697 40.1184 27.9673 39.5875 28.4553C39.0566 27.9673 38.3666 27.697 37.651 27.6967H29.9048C29.1347 27.6976 28.3963 28.0092 27.8518 28.5631C27.3072 29.117 27.0009 29.868 27 30.6513V70.0454C27.0009 70.8288 27.3072 71.5798 27.8518 72.1337C28.3963 72.6876 29.1347 72.9991 29.9048 73H37.651C38.3666 72.9998 39.0566 72.7295 39.5875 72.2414C40.1184 72.7295 40.8085 72.9998 41.5241 73H49.2703C50.0404 72.9991 50.7787 72.6876 51.3233 72.1337C51.8679 71.5798 52.1742 70.8288 52.1751 70.0454V38.0426L52.7876 40.3678L52.7877 40.3681L52.7878 40.3684L58.8023 63.199V63.1993L58.8024 63.1997L60.8071 70.8096C60.9056 71.1845 61.0757 71.536 61.3079 71.844C61.54 72.152 61.8296 72.4104 62.16 72.6045C62.4905 72.7985 62.8553 72.9244 63.2336 72.9749C63.6119 73.0254 63.9963 72.9995 64.3647 72.8988L71.847 70.8596C72.2155 70.7592 72.5609 70.5859 72.8635 70.3498C73.1661 70.1136 73.4201 69.8191 73.6108 69.4831C73.8016 69.1471 73.9254 68.7761 73.9751 68.3915C74.0249 68.0068 73.9998 67.6159 73.901 67.2412ZM54.9087 40.8095L64.2617 38.2606L69.775 59.1893L60.4223 61.7383L54.9087 40.8095ZM41.5241 29.6664H49.2703C49.527 29.6667 49.7731 29.7706 49.9546 29.9552C50.1361 30.1398 50.2382 30.3902 50.2385 30.6513V61.1818H40.5558V30.6513C40.5561 30.3902 40.6582 30.1398 40.8397 29.9552C41.0212 29.7706 41.2674 29.6667 41.5241 29.6664ZM29.9048 29.6664H37.651C37.9077 29.6667 38.1538 29.7706 38.3354 29.9552C38.5169 30.1398 38.619 30.3902 38.6193 30.6513V37.5453H28.9365V30.6513C28.9368 30.3902 29.0389 30.1398 29.2204 29.9552C29.402 29.7706 29.6481 29.6667 29.9048 29.6664ZM37.651 71.0303H29.9048C29.6481 71.03 29.402 70.9262 29.2204 70.7415C29.0389 70.5569 28.9368 70.3066 28.9365 70.0454V39.515H38.6193V70.0454C38.619 70.3066 38.5169 70.5569 38.3354 70.7415C38.1538 70.9262 37.9077 71.03 37.651 71.0303ZM49.2703 71.0303H41.5241C41.2674 71.03 41.0212 70.9262 40.8397 70.7415C40.6582 70.5569 40.5561 70.3066 40.5558 70.0454V63.1515H50.2385V70.0454C50.2382 70.3066 50.1361 70.5569 49.9546 70.7415C49.7731 70.9262 49.527 71.03 49.2703 71.0303ZM52.7501 31.5008C52.8134 31.3885 52.898 31.2902 52.9989 31.2114C53.0999 31.1326 53.2151 31.0749 53.3381 31.0418L60.8202 29.0026C60.9431 28.969 61.0712 28.9604 61.1973 28.9773C61.3233 28.9941 61.4449 29.0361 61.5551 29.1008C61.6652 29.1654 61.7617 29.2515 61.8391 29.3542C61.9165 29.4568 61.9733 29.5739 62.0061 29.6989L63.7605 36.3582L54.4076 38.9071L52.6534 32.2481C52.6201 32.1232 52.6115 31.9928 52.6281 31.8646C52.6447 31.7363 52.6862 31.6126 52.7501 31.5008ZM71.9337 68.4982C71.8704 68.6104 71.7858 68.7088 71.6849 68.7876C71.584 68.8664 71.4687 68.924 71.3457 68.9572L63.8636 70.9964C63.6155 71.0634 63.3515 71.0277 63.1293 70.8971C62.907 70.7666 62.7447 70.5518 62.6777 70.2998L60.9234 63.6407L70.2761 61.0917L72.0304 67.7509C72.0637 67.8758 72.0723 68.0061 72.0557 68.1344C72.0391 68.2627 71.9977 68.3863 71.9337 68.4982Z" stroke="#38B6FF" mask="url(#path-2-outside-1_4_8998)"/>
</svg>
