<svg width="100" height="100" viewBox="0 0 100 100" fill="none" xmlns="http://www.w3.org/2000/svg">
<circle cx="50" cy="50" r="50" fill="#E8F7FF"/>
<path d="M40.099 67.5083C40.0972 67.5083 40.0972 67.5083 40.099 67.5083V67.5083ZM72.6248 63.4274C72.2784 63.9953 71.9587 64.5861 71.5873 65.1417C71.9426 66.1457 72.2373 67.1742 72.6034 68.1729C72.7873 68.674 72.9962 69.1645 73.1623 69.6727C73.3052 70.107 73.4123 70.5535 73.5855 70.9773C73.5409 70.8771 73.4998 70.7786 73.4552 70.6784C73.7141 71.2744 73.9302 71.8863 74.1802 72.4858C74.207 72.5456 74.232 72.6036 74.2606 72.6617C74.3731 72.8568 74.432 73.0678 74.4338 73.2929C74.4302 73.5179 74.3731 73.7289 74.2606 73.9241C74.2284 73.9768 74.1766 74.0137 74.1373 74.0612C73.932 74.6027 73.4105 75.03 72.8016 74.9983C72.5194 74.986 72.3284 74.9315 72.1087 74.8471C72.1409 74.8612 72.1748 74.8753 72.2069 74.8876C71.5444 74.6221 70.8694 74.3935 70.2105 74.1245C69.4426 73.8151 68.6676 73.5021 67.9193 73.1399C67.2407 72.8111 66.5747 72.4436 65.8979 72.1043C65.3675 71.8371 64.8246 71.5944 64.2853 71.3447C63.3657 72.0076 62.4031 72.6107 61.4174 73.168C60.7477 73.5478 60.0316 73.8661 59.2906 74.0858C58.6655 74.2669 58.0387 74.3812 57.3959 74.4867C56.5423 74.6238 55.6923 74.7698 54.8279 74.8137C53.9922 74.8577 53.1797 74.7874 52.3493 74.6748C51.5975 74.5781 50.8636 74.4164 50.1475 74.1808C49.3457 73.9188 48.5671 73.5425 47.8135 73.1698C46.4474 72.4946 45.1509 71.7245 43.8848 70.8841C42.4652 69.947 41.1383 68.8463 40.0955 67.5118C40.049 67.452 40.0097 67.3852 39.9633 67.3237C39.7044 67.4292 39.4151 67.4731 39.1222 67.4081C38.8347 67.3465 38.5472 67.2832 38.2543 67.2358C37.674 67.1672 37.0954 67.0969 36.5204 66.9896C36.3596 67.0301 36.1989 67.0793 36.0436 67.1355C35.7203 67.2815 35.4025 67.438 35.0828 67.5962C33.8989 68.1852 32.7167 68.776 31.5363 69.3685C31.2524 69.5092 30.9595 69.634 30.6684 69.7588C30.2274 69.947 29.7631 70.1597 29.2898 70.2388C28.922 70.2986 28.6934 70.2951 28.3237 70.2283C28.1148 70.1913 27.7434 69.9786 27.6041 69.8256C27.2898 69.4863 27.0826 69.0731 27.0951 68.6019C27.1059 68.1817 27.2184 67.7791 27.3237 67.3747C27.6577 66.1052 27.9827 64.8305 28.3505 63.5699C28.7559 62.1756 29.0916 60.7637 29.4845 59.3677C29.4988 59.3185 29.5291 59.2815 29.5488 59.2358C28.8202 58.6292 28.1648 57.9347 27.6827 57.1277C27.0273 56.0253 26.5058 54.8631 26.1201 53.6394C25.7612 52.5 25.4415 51.3607 25.2701 50.1809C25.0862 48.8851 25.0147 47.5524 25.0004 46.2495C24.9933 45.4021 25.0719 44.5687 25.188 43.7282C25.2862 43.0126 25.4165 42.3005 25.604 41.6008C25.7951 40.8957 25.979 40.1819 26.2148 39.4909C26.4612 38.7806 26.7416 38.0861 27.0326 37.3933C27.2005 36.9942 27.3505 36.5775 27.5541 36.1977C27.738 35.8584 27.9219 35.5261 28.1202 35.1955C28.5327 34.4958 29.022 33.8435 29.5613 33.2351C30.0524 32.6813 30.5988 32.1661 31.156 31.6791C31.7631 31.1516 32.3703 30.6206 33.0203 30.1424C34.1971 29.2773 35.4293 28.5178 36.7597 27.8954C37.4597 27.5683 38.2008 27.3081 38.9347 27.076C39.6419 26.851 40.3472 26.6593 41.074 26.5152C41.8562 26.3604 42.6509 26.2725 43.4473 26.1881C44.1741 26.1143 44.9045 26.0404 45.6384 26.007C45.7402 26.0018 45.842 26 45.9456 26C46.651 26 47.351 26.116 48.0421 26.2567C48.7153 26.3974 49.401 26.5116 50.0671 26.6945C51.4368 27.0743 52.8279 27.4347 54.1494 27.9639C54.8601 28.2541 55.628 28.5283 56.2691 28.9486C56.5726 29.1472 56.8637 29.3688 57.1494 29.5833C57.4869 29.84 57.8316 30.0879 58.1495 30.3639C58.6316 30.7877 59.1495 31.1903 59.5834 31.6545C60.0852 32.189 60.5317 32.7727 60.9549 33.3723C61.3549 33.9366 61.6067 34.5995 61.8603 35.2377C62.096 35.832 62.3138 36.4298 62.5049 37.0382C62.5638 37.2245 62.5674 37.4144 62.5353 37.5973C63.1621 37.8223 63.7782 38.0755 64.3567 38.4026C64.9925 38.7665 65.6478 39.0812 66.2889 39.4241C66.955 39.781 67.6104 40.1661 68.2515 40.5634C68.9176 40.9766 69.5622 41.4707 70.1247 42.0192C70.7248 42.6047 71.1926 43.3027 71.6819 43.9797C72.5802 45.2227 73.382 46.5783 73.8391 48.0394C74.057 48.7374 74.2177 49.4583 74.3748 50.1704C74.5248 50.8561 74.6623 51.5488 74.757 52.2433C74.8695 53.0662 74.9374 53.8961 74.9784 54.7277C75.0124 55.4099 75.0124 56.078 74.9338 56.7585C74.7623 58.2811 74.2963 59.8002 73.7088 61.2156C73.5248 61.6622 73.3534 62.1228 73.1284 62.5536C72.973 62.849 72.798 63.1373 72.6248 63.4274ZM38.3472 64.7022C38.2793 64.5562 38.1847 64.4226 38.124 64.2731C37.6633 63.1268 37.3454 61.9242 37.1418 60.711C36.9204 59.4029 36.8311 58.0895 36.8311 56.762C36.8311 56.1642 36.8382 55.5717 36.8829 54.9739C36.9382 54.2987 37.0293 53.6288 37.1222 52.9572C37.1186 52.9836 37.115 53.0099 37.1097 53.0345C37.1543 52.7022 37.2079 52.3717 37.2579 52.0394C36.9543 52.0534 36.6489 52.0675 36.3454 52.0816C35.5507 52.115 34.8846 51.3994 34.8846 50.6434C34.8846 49.8363 35.5507 49.228 36.3454 49.2016C36.7097 49.1911 37.074 49.184 37.4382 49.184C37.6097 49.184 37.7811 49.1858 37.9543 49.1893C37.9579 49.1893 37.9615 49.1911 37.965 49.1911C38.224 48.4227 38.524 47.6614 38.8954 46.9546C38.9329 46.8825 38.9829 46.8192 39.0222 46.7471C38.4293 46.7805 37.8365 46.8174 37.2418 46.8315C36.44 46.8544 35.7703 46.1563 35.7703 45.3827C35.7703 44.5792 36.44 43.9515 37.2418 43.9339C38.3061 43.9111 39.3722 43.9234 40.4365 43.9005C40.4455 43.9005 40.4562 43.9005 40.4651 43.9005C40.5776 43.9005 40.6794 43.941 40.7865 43.9691C41.3044 43.2605 41.8419 42.5643 42.4294 41.9067C42.4509 41.8821 42.4741 41.8575 42.4955 41.8329C41.7294 41.8241 40.9633 41.8241 40.199 41.8258C39.1169 41.8258 38.0347 41.8293 36.9561 41.7995C36.1846 41.7801 35.5364 41.1806 35.5364 40.4017C35.5364 39.679 36.1543 39.0021 36.9025 39.0021C36.9204 39.0021 36.9382 39.0021 36.9561 39.0021C38.3454 39.0584 39.7312 39.1094 41.1205 39.1164C41.7794 39.1164 42.4384 39.0971 43.0973 39.1058C43.8045 39.1164 44.5063 39.1428 45.2134 39.1393C45.3545 39.1393 45.4849 39.1814 45.6152 39.2201C45.7617 39.1322 45.9027 39.0338 46.0545 38.9529C46.8224 38.5432 47.6153 38.1863 48.4331 37.8839C49.1492 37.6149 49.8743 37.3353 50.6171 37.1349C52.0993 36.7322 53.619 36.4755 55.1583 36.4755C55.178 36.4755 55.1976 36.4755 55.2172 36.4755C55.9655 36.4755 56.7155 36.472 57.4602 36.5019C58.1602 36.5318 58.8441 36.6496 59.5263 36.792C59.4031 36.4738 59.2906 36.1503 59.1584 35.8355C58.9138 35.3098 58.6209 34.8263 58.2745 34.3569C57.9227 33.9226 57.553 33.5129 57.1298 33.1419C56.6726 32.7393 56.2155 32.3296 55.7315 31.9516C55.3851 31.6861 55.0333 31.4171 54.6512 31.2096C54.2851 31.0074 53.9011 30.8386 53.5172 30.6751C52.4154 30.225 51.2814 29.8962 50.1385 29.5622C48.9849 29.2228 47.8135 28.9521 46.6313 28.7288C45.3849 28.6092 44.1295 28.7587 42.8884 28.9116C42.0044 29.0435 41.1223 29.2017 40.2633 29.4655C39.5419 29.687 38.8258 29.9472 38.124 30.2321C37.4918 30.5274 36.8525 30.8246 36.2561 31.1815C35.6614 31.5402 35.0953 31.9217 34.5382 32.3261C33.3685 33.2562 32.281 34.2654 31.3006 35.3872C30.6506 36.2663 30.1113 37.2105 29.6595 38.2056C28.8988 40.0518 28.3202 41.9665 27.9791 43.9322C27.8702 44.8887 27.8219 45.8399 27.8612 46.8034C27.9041 47.7528 27.9827 48.704 28.0809 49.6535C28.322 51.1409 28.7738 52.6108 29.3166 54.0192C29.6523 54.7471 30.0291 55.4539 30.5006 56.1027C30.7934 56.4227 31.1024 56.7145 31.4327 56.9994C31.7078 57.1998 31.9881 57.3897 32.281 57.569C32.9739 57.9998 33.2435 58.8824 32.8203 59.5963C32.6899 59.816 32.4917 59.9743 32.2721 60.1009C32.2703 60.1079 32.2721 60.1132 32.2703 60.1202C31.8167 61.6323 31.3899 63.1549 30.9702 64.674C30.7738 65.3861 30.5809 66.1052 30.4095 66.8296C31.0131 66.5465 31.606 66.2476 32.2096 65.9681C32.9846 65.6112 33.7328 65.2015 34.5167 64.8657C35.2811 64.5334 36.265 64.1624 37.0972 64.4384C37.5043 64.5685 37.9275 64.6353 38.3472 64.7022ZM71.9409 52.8499C71.8141 52.0939 71.6498 51.3466 71.473 50.5976C71.2801 49.8082 71.0658 49.0223 70.7783 48.2592C70.4551 47.5664 70.0605 46.9177 69.6604 46.2654C69.2908 45.6676 68.8926 45.0838 68.4711 44.5159C68.1336 44.1361 67.78 43.7898 67.3943 43.4592C66.5836 42.8667 65.7175 42.3445 64.8335 41.8715C64.3317 41.6025 63.8067 41.3704 63.3103 41.0856C62.9246 40.8606 62.5424 40.6461 62.1388 40.4597C60.8067 39.9568 59.4138 39.6087 58.0084 39.359C57.253 39.2922 56.4976 39.2975 55.7351 39.2975C54.9762 39.2975 54.219 39.3168 53.4636 39.3872C52.7083 39.4997 51.9582 39.6456 51.2296 39.8724C50.4296 40.1203 49.6475 40.4175 48.8689 40.7199C47.9456 41.1278 47.0795 41.6271 46.2474 42.1968C45.2724 42.9915 44.4527 43.955 43.6652 44.9291C43.1902 45.5462 42.7169 46.1669 42.3151 46.8368C41.9151 47.5032 41.5598 48.1871 41.2312 48.8886C40.9133 49.6763 40.6526 50.471 40.4401 51.2957C40.2615 51.9937 40.149 52.7058 40.0472 53.4178C39.9276 54.4148 39.8562 55.4064 39.8776 56.4139C39.8937 57.3897 39.9401 58.3637 40.033 59.336C40.2437 60.653 40.5687 61.9382 41.0598 63.183C41.4651 63.969 41.9384 64.7127 42.458 65.4265C42.8348 65.8802 43.2259 66.3215 43.6777 66.7048C44.1063 67.0635 44.5509 67.4063 44.9974 67.7474C46.7831 69.0362 48.7278 70.1017 50.7403 71.0001C51.4975 71.2902 52.2654 71.4801 53.0672 71.6085C54.0458 71.7069 55.0101 71.6823 55.9887 71.5716C57.1887 71.4045 58.378 71.2234 59.5156 70.7997C60.6031 70.2951 61.6424 69.6762 62.6085 68.9747C62.7281 68.8762 62.8496 68.7777 62.9692 68.6758C63.2799 68.4138 63.6049 68.245 64.0282 68.245C64.3335 68.245 64.6175 68.361 64.8657 68.5281C64.9782 68.558 65.0943 68.5544 65.1996 68.6089C66.8104 69.4371 68.3765 70.3672 70.0444 71.0828C70.3997 71.2269 70.7569 71.3694 71.114 71.5135C71.0926 71.4555 71.0623 71.3975 71.0426 71.3377C70.9605 71.0916 70.8783 70.8437 70.7926 70.5993C70.6123 70.0788 70.3997 69.5707 70.198 69.0538C70.0033 68.5527 69.839 68.0393 69.639 67.5382C69.3997 66.9439 69.1444 66.3584 68.9122 65.7641C68.8319 65.5584 68.8586 65.3175 68.9211 65.089C68.9122 65.0644 68.8926 65.0433 68.8854 65.0186C68.7926 64.6881 68.8176 64.238 69.0247 63.9532C69.4212 63.4186 69.7479 62.8367 70.0765 62.26C70.4015 61.6938 70.714 61.1329 70.9837 60.5387C71.4962 59.2815 71.8766 57.9892 72.0944 56.6512C72.2123 55.3906 72.1051 54.1071 71.9409 52.8499ZM40.099 67.5083C40.1812 67.6155 40.2615 67.721 40.3472 67.8265C40.2633 67.721 40.1812 67.6138 40.099 67.5083ZM51.8047 51.6983C53.5493 51.7756 55.2994 51.7528 57.0441 51.7088C57.9387 51.686 58.8334 51.6614 59.7263 51.6121C60.5495 51.5647 61.3745 51.5119 62.2013 51.4908C62.9799 51.468 63.6317 50.8649 63.6317 50.0825C63.6317 49.3528 62.9799 48.6196 62.2013 48.6741C58.7441 48.8992 55.2619 48.8025 51.8029 48.6003C51.7761 48.5985 51.7511 48.5985 51.7261 48.5985C50.9046 48.5985 50.2296 49.3686 50.2296 50.151C50.2314 51.0214 50.9475 51.6578 51.8047 51.6983ZM62.7049 53.9189C62.346 53.9119 61.9906 53.9453 61.6335 53.9453C61.1924 53.9488 60.7531 53.9488 60.312 53.9348C59.4316 53.9049 58.5513 53.8539 57.6709 53.8574C55.7012 53.8609 53.7422 53.7501 51.7761 53.6868C51.7636 53.6868 51.7493 53.6868 51.7368 53.6868C50.9207 53.6868 50.2475 54.406 50.2475 55.1936C50.2475 56.0306 50.9439 56.6758 51.7761 56.6987C53.7422 56.7462 55.7048 56.7391 57.6709 56.7497C58.5513 56.7567 59.4316 56.7901 60.312 56.8306C61.1102 56.864 61.9067 56.878 62.7049 56.8886C63.5282 56.8991 64.2139 56.2064 64.2139 55.4064C64.2139 54.58 63.5282 53.9348 62.7049 53.9189ZM61.8513 58.8051C61.3567 58.7945 60.862 58.798 60.3674 58.8051C60.0495 58.8086 59.7316 58.8121 59.4191 58.8086C58.562 58.8051 57.7084 58.8086 56.853 58.791C56.0137 58.7769 55.1744 58.7945 54.3297 58.798C53.3779 58.8015 52.4279 58.7576 51.4761 58.7505C51.4743 58.7505 51.4725 58.7505 51.4707 58.7505C50.7046 58.7505 50.0635 59.3905 50.0635 60.1448C50.0635 60.8973 50.7082 61.5426 51.4761 61.5356C53.269 61.5215 55.0637 61.4424 56.853 61.5391C57.6691 61.5831 58.4816 61.6305 59.2941 61.6428C60.1513 61.6534 61.0049 61.6534 61.8549 61.7501C62.2263 61.7905 62.6603 61.5655 62.9139 61.3158C63.1906 61.0433 63.3514 60.6635 63.3514 60.2767C63.346 59.4609 62.6638 58.8279 61.8513 58.8051Z" fill="#38B6FF"/>
</svg>
