<svg width="100" height="100" viewBox="0 0 100 100" fill="none" xmlns="http://www.w3.org/2000/svg">
<circle cx="50" cy="50" r="50" fill="#E8F7FF"/>
<path d="M53.8287 70.0979H29.204C28.6262 70.0957 28.0722 69.8676 27.6604 69.4624C27.2486 69.0572 27.0116 68.5069 27 67.9293V32.6298C27 32.0452 27.2322 31.4847 27.6455 31.0713C28.0589 30.658 28.6195 30.4258 29.204 30.4258H64.4681C65.0526 30.4258 65.6132 30.658 66.0266 31.0713C66.4399 31.4847 66.6721 32.0452 66.6721 32.6298V52.457" stroke="#38B6FF" stroke-width="3"/>
<path d="M27 40.162H66.6721" stroke="#38B6FF" stroke-width="3"/>
<path d="M37.449 26C37.449 25.1716 36.7775 24.5 35.949 24.5C35.1206 24.5 34.449 25.1716 34.449 26H37.449ZM37.449 30.4257V26H34.449V30.4257H37.449Z" fill="#38B6FF"/>
<path d="M58.6582 26C58.6582 25.1716 57.9866 24.5 57.1582 24.5C56.3298 24.5 55.6582 25.1716 55.6582 26H58.6582ZM58.6582 30.4257V26H55.6582V30.4257H58.6582Z" fill="#38B6FF"/>
<path d="M61.4047 73.1257C67.4811 73.1257 72.407 68.1998 72.407 62.1234C72.407 56.047 67.4811 51.1211 61.4047 51.1211C55.3283 51.1211 50.4023 56.047 50.4023 62.1234C50.4023 68.1998 55.3283 73.1257 61.4047 73.1257Z" stroke="#38B6FF" stroke-width="3"/>
<path d="M61.7031 56.125V64.1975L65.5535 67.1539" stroke="#38B6FF" stroke-width="3" stroke-linecap="round"/>
</svg>
