<svg width="70" height="70" viewBox="0 0 70 70" fill="none" xmlns="http://www.w3.org/2000/svg">
<circle cx="35" cy="35" r="35" fill="#E8F7FF"/>
<path d="M35.8348 26.32V28.552H28.7548V33.472H34.2748V35.704H28.7548V43H26.0188V26.32H35.8348ZM41.1063 31.696C41.5063 31.024 42.0343 30.504 42.6903 30.136C43.3623 29.752 44.1543 29.56 45.0663 29.56V32.392H44.3703C43.2983 32.392 42.4823 32.664 41.9223 33.208C41.3783 33.752 41.1063 34.696 41.1063 36.04V43H38.3703V29.776H41.1063V31.696Z" fill="#38B6FF"/>
<path d="M48.3333 19H21.6667C20.1939 19 19 20.1939 19 21.6667V48.3333C19 49.8061 20.1939 51 21.6667 51H48.3333C49.8061 51 51 49.8061 51 48.3333V21.6667C51 20.1939 49.8061 19 48.3333 19Z" stroke="#38B6FF" stroke-width="2.5" stroke-linecap="round" stroke-linejoin="round"/>
</svg>
