<svg width="70" height="70" viewBox="0 0 70 70" fill="none" xmlns="http://www.w3.org/2000/svg">
<circle cx="35" cy="35" r="35" fill="#E8F7FF"/>
<path d="M35.5 52C45.1649 52 53 44.1649 53 34.5C53 24.835 45.1649 17 35.5 17C25.835 17 18 24.835 18 34.5C18 44.1649 25.835 52 35.5 52Z" stroke="#38B6FF" stroke-width="2.5" stroke-linecap="round" stroke-linejoin="round"/>
<path d="M18 34.5H53" stroke="#38B6FF" stroke-width="2.5" stroke-linecap="round" stroke-linejoin="round"/>
<path d="M35.5 52C38.8828 52 41.625 44.1649 41.625 34.5C41.625 24.835 38.8828 17 35.5 17C32.1173 17 29.375 24.835 29.375 34.5C29.375 44.1649 32.1173 52 35.5 52Z" stroke="#38B6FF" stroke-width="2.5" stroke-linecap="round" stroke-linejoin="round"/>
</svg>
