<svg width="140" height="140" viewBox="0 0 140 140" fill="none" xmlns="http://www.w3.org/2000/svg">
<circle cx="70" cy="70" r="70" fill="#E8F7FF"/>
<path d="M83.1648 44.3398C90.052 44.3782 93.7818 44.6836 96.215 47.1167C98.9974 49.8991 98.9974 54.3772 98.9974 63.3334V82.3326C98.9974 91.2888 98.9974 95.7672 96.215 98.5493C93.4325 101.332 88.9545 101.332 79.9983 101.332H60.9991C52.0428 101.332 47.5647 101.332 44.7824 98.5493C42 95.7672 42 91.2888 42 82.3326V63.3334C42 54.3772 42 49.8991 44.7824 47.1167C47.2155 44.6836 50.9453 44.3782 57.8326 44.3398" stroke="#38B6FF" stroke-width="4.74978"/>
<path d="M54.668 77.582H80.0001" stroke="#38B6FF" stroke-width="4.74978" stroke-linecap="round"/>
<path d="M54.668 88.6641H72.0838" stroke="#38B6FF" stroke-width="4.74978" stroke-linecap="round"/>
<path d="M57.8337 42.7498C57.8337 40.1265 59.9603 38 62.5835 38H78.4161C81.0393 38 83.1659 40.1265 83.1659 42.7498V45.9163C83.1659 48.5395 81.0393 50.6661 78.4161 50.6661H62.5835C59.9603 50.6661 57.8337 48.5395 57.8337 45.9163V42.7498Z" stroke="#38B6FF" stroke-width="4.74978"/>
</svg>
