<svg width="170" height="32" viewBox="0 0 170 32" fill="none" xmlns="http://www.w3.org/2000/svg">
<path d="M0 0H31.875V32H0V0ZM34.5312 0H66.4062V32H34.5312V0ZM69.0625 0H100.938V32H69.0625V0ZM103.594 0H135.469V32H103.594V0ZM138.125 0H170V32H138.125V0Z" fill="#00B67A"/>
<path d="M15.9375 21.5661L20.7852 20.3327L22.8105 26.5994L15.9375 21.5661ZM27.0937 13.4661H18.5605L15.9375 5.39941L13.3145 13.4661H4.78125L11.6875 18.4661L9.06445 26.5327L15.9707 21.5327L20.2207 18.4661L27.0937 13.4661ZM50.4687 21.5661L55.3164 20.3327L57.3418 26.5994L50.4687 21.5661ZM61.625 13.4661H53.0918L50.4687 5.39941L47.8457 13.4661H39.3125L46.2187 18.4661L43.5957 26.5327L50.502 21.5327L54.7519 18.4661L61.625 13.4661ZM85 21.5661L89.8477 20.3327L91.873 26.5994L85 21.5661ZM96.1562 13.4661H87.623L85 5.39941L82.377 13.4661H73.8437L80.75 18.4661L78.127 26.5327L85.0332 21.5327L89.2832 18.4661L96.1562 13.4661ZM119.531 21.5661L124.379 20.3327L126.404 26.5994L119.531 21.5661ZM130.687 13.4661H122.154L119.531 5.39941L116.908 13.4661H108.375L115.281 18.4661L112.658 26.5327L119.564 21.5327L123.814 18.4661L130.687 13.4661ZM154.062 21.5661L158.91 20.3327L160.936 26.5994L154.062 21.5661ZM165.219 13.4661H156.686L154.062 5.39941L151.439 13.4661H142.906L149.812 18.4661L147.189 26.5327L154.096 21.5327L158.346 18.4661L165.219 13.4661Z" fill="white"/>
</svg>
