<svg width="37" height="34" viewBox="0 0 37 34" fill="none" xmlns="http://www.w3.org/2000/svg">
<path d="M2 8.66665C2 6.33311 2 5.16633 2.44959 4.27503C2.84508 3.49103 3.47612 2.85362 4.25229 2.45413C5.13467 2 6.28979 2 8.60001 2C10.9102 2 12.0653 2 12.9477 2.45413C13.7239 2.85362 14.3549 3.49103 14.7504 4.27503C15.2 5.16633 15.2 6.33311 15.2 8.66665V25.3333C15.2 27.6668 15.2 28.8336 14.7504 29.725C14.3549 30.5089 13.7239 31.1463 12.9477 31.5458C12.0653 31.9999 10.9102 31.9999 8.60001 31.9999C6.28979 31.9999 5.13467 31.9999 4.25229 31.5458C3.47612 31.1463 2.84508 30.5089 2.44959 29.725C2 28.8336 2 27.6668 2 25.3333V8.66665Z" stroke="#38B6FF" stroke-width="2.5" stroke-linecap="round" stroke-linejoin="round"/>
<path d="M8.59961 25.334H8.61443" stroke="#38B6FF" stroke-width="2.5" stroke-linecap="round" stroke-linejoin="round"/>
<path d="M2 8.66602H15.2" stroke="#38B6FF" stroke-width="2.5" stroke-linecap="round" stroke-linejoin="round"/>
<path d="M17.5898 10.7807C17.0042 8.56395 16.7115 7.45559 16.9131 6.49331C17.0905 5.64686 17.5274 4.87911 18.1615 4.30008C18.8822 3.64179 19.975 3.34481 22.1605 2.75083C24.3459 2.15686 25.4387 1.85988 26.3873 2.06441C27.2218 2.24433 27.9787 2.6876 28.5496 3.33068C29.1985 4.06176 29.4914 5.17014 30.077 7.38687L34.2594 23.2193C34.845 25.436 35.1377 26.5443 34.9361 27.5066C34.7587 28.3531 34.3218 29.1208 33.6877 29.6999C32.967 30.3581 31.8742 30.6551 29.6887 31.2491C27.5033 31.8431 26.4105 32.1401 25.4619 31.9356C24.6274 31.7556 23.8705 31.3123 23.2996 30.6693C22.6507 29.9381 22.3578 28.8298 21.7722 26.6131L17.5898 10.7807Z" stroke="#38B6FF" stroke-width="2.5" stroke-linecap="round" stroke-linejoin="round"/>
<path d="M28.0391 24.8265L28.0534 24.8223" stroke="#38B6FF" stroke-width="2.5" stroke-linecap="round" stroke-linejoin="round"/>
<path d="M18.5 10.3336L29.2252 7" stroke="#38B6FF" stroke-width="2.5" stroke-linecap="round" stroke-linejoin="round"/>
</svg>
