<svg width="70" height="70" viewBox="0 0 70 70" fill="none" xmlns="http://www.w3.org/2000/svg">
<circle cx="35" cy="35" r="35" fill="#E8F7FF"/>
<path d="M25.2227 41.2218V28.7773H32.3338" stroke="#38B6FF" stroke-width="2.5" stroke-linecap="round" stroke-linejoin="round"/>
<path d="M25.2227 35H31.8893" stroke="#38B6FF" stroke-width="2.5" stroke-linecap="round" stroke-linejoin="round"/>
<path d="M25.2227 41.2227H31.8893" stroke="#38B6FF" stroke-width="2.5" stroke-linecap="round" stroke-linejoin="round"/>
<path d="M36.7773 41.2233V30.5566" stroke="#38B6FF" stroke-width="2.5" stroke-linecap="round" stroke-linejoin="round"/>
<path d="M36.7773 41.2211V35.4434C36.7773 33.2342 38.5682 31.4434 40.7773 31.4434C42.9865 31.4434 44.7773 33.2342 44.7773 35.4434V41.2211" stroke="#38B6FF" stroke-width="2.5" stroke-linecap="round" stroke-linejoin="round"/>
<path d="M48.3333 19H21.6667C20.1939 19 19 20.1939 19 21.6667V48.3333C19 49.8061 20.1939 51 21.6667 51H48.3333C49.8061 51 51 49.8061 51 48.3333V21.6667C51 20.1939 49.8061 19 48.3333 19Z" stroke="#38B6FF" stroke-width="2.5" stroke-linecap="round" stroke-linejoin="round"/>
</svg>
