<svg width="70" height="70" viewBox="0 0 70 70" fill="none" xmlns="http://www.w3.org/2000/svg">
<circle cx="35" cy="35" r="35" fill="#E8F7FF"/>
<path d="M34.8149 49.3664L50.5369 47.1208V20.9699L35.3705 23.1369C35.002 23.1895 34.6279 23.1895 34.2594 23.1369L19.093 20.9699V47.1208L34.8149 49.3664ZM19.4624 18.3758L34.6289 20.5428C34.7523 20.5605 34.8776 20.5605 35.001 20.5428L50.1674 18.3758C50.539 18.3229 50.9176 18.3504 51.2776 18.4565C51.6377 18.5626 51.9707 18.7448 52.2542 18.9908C52.5377 19.2367 52.765 19.5407 52.9208 19.8822C53.0766 20.2236 53.1572 20.5946 53.1572 20.9699V47.1208C53.1572 47.7517 52.9296 48.3615 52.5161 48.838C52.1026 49.3146 51.531 49.6259 50.9064 49.7149L35.001 51.9867C34.8776 52.0044 34.7523 52.0044 34.6289 51.9867L18.7235 49.7149C18.0989 49.6259 17.5273 49.3146 17.1138 48.838C16.7003 48.3615 16.4727 47.7517 16.4727 47.1208V20.9699C16.4727 20.5946 16.5533 20.2236 16.7091 19.8822C16.8649 19.5407 17.0922 19.2367 17.3757 18.9908C17.6592 18.7448 17.9922 18.5626 18.3523 18.4565C18.7123 18.3504 19.0909 18.3229 19.4624 18.3758Z" fill="#38B6FF"/>
<path d="M33.5059 21.8789H36.1262V50.7025H33.5059V21.8789Z" fill="#38B6FF"/>
</svg>
