<svg width="100" height="100" viewBox="0 0 100 100" fill="none" xmlns="http://www.w3.org/2000/svg">
<circle cx="50" cy="50" r="50" fill="#E8F7FF"/>
<path d="M70.0135 30.2143C74.8634 35.1615 77.8538 41.9381 77.8538 49.4131C77.8538 56.9769 74.7918 63.8256 69.8402 68.7874M31.2281 69C26.1504 64.022 23 57.0855 23 49.4131C23 41.8295 26.0779 34.9648 31.0526 30" stroke="#38B6FF" stroke-width="4" stroke-linecap="round" stroke-linejoin="round"/>
<path d="M62.179 38.562C65.0887 41.3453 66.883 45.1577 66.883 49.3633C66.883 53.6189 65.0459 57.4718 62.0748 60.2633M38.9075 60.3829C35.8609 57.5824 33.9707 53.6798 33.9707 49.3633C33.9707 45.0968 35.8174 41.2346 38.8023 38.4414" stroke="#38B6FF" stroke-width="4" stroke-linecap="round" stroke-linejoin="round"/>
<path d="M54.9695 45.1655C57.4264 46.9693 58.6549 47.8711 58.6549 49.4136C58.6549 50.9561 57.4264 51.8579 54.9695 53.6618C54.2915 54.1596 53.6187 54.6286 53.0005 55.0191C52.4583 55.362 51.8442 55.7163 51.2082 56.0644C48.7573 57.4058 47.5316 58.0767 46.4326 57.334C45.3333 56.5912 45.2335 55.0367 45.0338 51.9276C44.9773 51.0483 44.9414 50.1862 44.9414 49.4136C44.9414 48.641 44.9773 47.779 45.0338 46.8997C45.2335 43.7905 45.3333 42.2359 46.4326 41.4933C47.5316 40.7507 48.7573 41.4214 51.2082 42.7628C51.8442 43.1109 52.4583 43.4654 53.0005 43.8081C53.6187 44.1987 54.2915 44.6677 54.9695 45.1655Z" stroke="#38B6FF" stroke-width="4"/>
</svg>
