<svg width="95" height="80" viewBox="0 0 95 80" fill="none" xmlns="http://www.w3.org/2000/svg">
<path d="M35.7578 7.91357C35.1965 8.10046 34.9669 8.0789 34.7651 8.19063C23.1404 18.2721 4.58216 27.5343 4.12866 42.2363C4.00427 45.9488 4.91431 49.5843 6.6732 52.9727C10.3743 60.2677 18.4629 64.1415 27.1162 62.8195C31.6296 62.1542 35.8459 60.7859 39.2547 57.7084C39.1383 55.7155 38.9499 53.7377 39.0052 51.8481C39.1112 48.7654 40.2632 46.0205 42.9045 43.9381C44.8246 42.3542 46.9816 41.9033 48.3548 42.7292C50.1572 43.8131 50.5473 45.6792 49.9331 47.4074C49.0848 49.8106 47.921 52.1406 46.6574 54.3524C45.8297 55.7775 44.6008 57.0777 43.5156 58.3479C46.3121 65.6234 54.6739 67.2142 63.222 62.1581C63.2866 61.0316 63.3374 59.8385 63.474 58.697C64.09 54.4644 66.1232 50.9092 70.1445 48.6079C71.6867 47.729 73.4424 47.1534 75.1729 48.2523C76.4742 49.0932 76.8643 50.9593 76.1041 53.0658C74.8477 56.389 72.4756 59.0412 69.8321 61.4718C68.879 62.2971 67.9259 63.1223 66.9589 63.881C70.8349 75.2433 83.8504 81.1477 93.9473 74.168C94.0566 75.0494 94.2817 75.7674 94.0777 76.2274C93.8158 76.7691 93.0806 77.201 92.4614 77.4696C86.573 79.8134 80.7538 80.3343 75.2167 77.1792C71.0528 74.85 67.9 71.6138 65.4267 67.6792C65.0856 67.1244 64.7445 66.5697 64.3315 66.03C64.3176 65.9634 64.1599 65.9268 63.8305 65.787C63.1974 65.9889 62.4065 66.1542 61.6435 66.4528C52.3018 69.8664 46.7674 68.5192 40.5683 61.1203C39.7612 61.5673 38.8104 62.0443 37.9454 62.5729C32.7715 65.463 27.2633 66.7535 21.293 66.1931C11.5769 65.3027 4.16276 59.2708 1.59309 50.209C0.188724 45.2857 0.120303 40.2919 1.08631 35.2209C3.47707 22.9658 21.2054 15.4769 31.6407 7.24394C32.1462 6.79048 32.7376 6.38863 33.2431 5.93516C33.3011 5.85349 33.3451 5.70516 33.4772 5.2602C30.9212 5.23804 28.6623 5.91895 26.3894 6.53319C24.1745 7.06575 21.9156 7.74663 19.499 8.39093C19.3524 6.61306 20.2197 5.73618 21.3584 5.0808C22.7127 4.38034 24.0392 3.54658 25.4632 3.17934C29.3178 2.23445 33.2583 1.34117 37.2544 0.714474C40.3878 0.268138 41.571 1.62064 40.6926 4.23879C38.7757 9.78677 36.787 15.3498 34.7982 20.9128C34.4621 21.8177 33.9544 22.6195 33.3585 23.7178C31.686 22.5372 32.0383 21.3506 32.3326 20.2457C33.5934 16.2261 34.6385 12.2515 35.7578 7.91357ZM73.4339 50.7026C68.5984 52.3394 66.1198 55.9181 66.7678 60.0952C69.6572 57.4045 72.4445 54.9438 73.4339 50.7026ZM46.9731 45.4525C42.9262 47.2723 41.4703 50.359 42.7516 54.3342C45.0378 51.6304 46.9925 49.1351 46.9731 45.4525Z" fill="#38B6FF"/>
</svg>
