<svg width="70" height="70" viewBox="0 0 70 70" fill="none" xmlns="http://www.w3.org/2000/svg">
<circle cx="35" cy="35" r="35" fill="#E8F7FF"/>
<path d="M46.5053 19.4157L46.5053 19.4157C49.5055 21.4446 51.8898 24.3138 53.3197 27.6879C54.2726 29.9366 54.8001 32.4107 54.8 35C54.8005 38.8845 53.6129 42.5065 51.5842 45.5054L51.5842 45.5055C49.5553 48.5057 46.6861 50.8899 43.312 52.3198C41.0632 53.2727 38.5891 53.8001 36 53.8C32.1156 53.8005 28.4937 52.6129 25.4947 50.5843L25.3826 50.75L25.4947 50.5843C22.4945 48.5554 20.1102 45.6862 18.6803 42.3121C17.7274 40.0634 17.1999 37.5892 17.2 35L17.2 35C17.1995 31.1154 18.3872 27.4934 20.4158 24.4945L20.4158 24.4945C22.4447 21.4943 25.314 19.1102 28.688 17.6802C30.9368 16.7273 33.4108 16.1999 36 16.2L36 16.2C39.8844 16.1995 43.5063 17.3871 46.5053 19.4157ZM45.3104 48.817L45.3105 48.817C47.9717 47.0178 50.0895 44.4684 51.3554 41.4799L51.1713 41.4019L51.3554 41.4799C52.1995 39.487 52.6665 37.2999 52.6666 35.0001C52.6661 31.5507 51.6162 28.3519 49.8169 25.6895L49.8169 25.6895C48.0177 23.0282 45.4683 20.9104 42.4797 19.6446C40.4868 18.8004 38.2999 18.3335 36 18.3333H36C32.5509 18.3338 29.352 19.3836 26.6896 21.183L26.6895 21.183C24.0283 22.9821 21.9105 25.5316 20.6446 28.5201L20.6446 28.5201C19.8005 30.513 19.3335 32.7001 19.3333 35V35C19.3338 38.4492 20.3836 41.6481 22.1832 44.3105L22.3489 44.1985L22.1833 44.3105C23.9824 46.9717 26.5319 49.0895 29.5204 50.3554C31.5133 51.1995 33.7003 51.6665 36.0001 51.6666C39.4492 51.6661 42.6479 50.6163 45.3104 48.817Z" fill="#38B6FF" stroke="#E8F7FF" stroke-width="0.4"/>
<path d="M43.7446 27.2545L43.7446 27.2545C44.1505 27.6603 44.1505 28.3184 43.7446 28.7243L29.7224 42.7465C29.3165 43.1525 28.6585 43.1525 28.2525 42.7465C27.8466 42.3406 27.8466 41.6826 28.2525 41.2766L42.2747 27.2545L42.2747 27.2545C42.6805 26.8485 43.3386 26.8485 43.7446 27.2545Z" fill="#38B6FF" stroke="#E8F7FF" stroke-width="0.4"/>
<path d="M32.08 27.1508V27.3508H32.28H35.1719C35.746 27.3508 36.2113 27.8162 36.2113 28.3902C36.2113 28.9642 35.7459 29.4296 35.1719 29.4296H32.28H32.08V29.6296V32.5215C32.08 33.0955 31.6146 33.5609 31.0406 33.5609C30.4666 33.5609 30.0012 33.0955 30.0012 32.5215V29.6296V29.4296H29.8012H26.9093C26.3353 29.4296 25.8699 28.9642 25.8699 28.3902C25.8699 27.8162 26.3353 27.3508 26.9093 27.3508H29.8012H30.0012V27.1508V24.2589C30.0012 23.6849 30.4666 23.2195 31.0406 23.2195C31.6146 23.2195 32.08 23.6849 32.08 24.2589V27.1508Z" fill="#38B6FF" stroke="#E8F7FF" stroke-width="0.4"/>
<path d="M37.6515 40.5711H45.9141C46.4882 40.5711 46.9536 41.0365 46.9536 41.6105C46.9536 42.1845 46.4882 42.6499 45.9142 42.6499H37.6515C37.0775 42.6499 36.6121 42.1845 36.6121 41.6105C36.6121 41.0365 37.0775 40.5711 37.6515 40.5711Z" fill="#38B6FF" stroke="#E8F7FF" stroke-width="0.4"/>
</svg>
