<svg width="34" height="33" viewBox="0 0 34 33" fill="none" xmlns="http://www.w3.org/2000/svg">
<path d="M17 31L14 22H2L5 31H17ZM17 31H23" stroke="#38B6FF" stroke-width="2.5" stroke-linecap="round" stroke-linejoin="round"/>
<path d="M17 20.5V19.5C17 15.7288 17 13.8431 16.1213 12.6716C15.2426 11.5 13.8284 11.5 11 11.5C8.17157 11.5 6.75736 11.5 5.87869 12.6716C5 13.8431 5 15.7288 5 19.5V20.5" stroke="#38B6FF" stroke-width="2.5" stroke-linecap="round" stroke-linejoin="round"/>
<path d="M27.5 17.5C27.5 19.1569 26.1569 20.5 24.5 20.5C22.8431 20.5 21.5 19.1569 21.5 17.5C21.5 15.8431 22.8431 14.5 24.5 14.5C26.1569 14.5 27.5 15.8431 27.5 17.5Z" stroke="#38B6FF" stroke-width="2"/>
<path d="M14 4C14 5.65686 12.6569 7 11 7C9.34314 7 8 5.65686 8 4C8 2.34314 9.34314 1 11 1C12.6569 1 14 2.34314 14 4Z" stroke="#38B6FF" stroke-width="2"/>
<path d="M18.5 25H26C29.3138 25 32 26.1939 32 27.6667V28.3333C32 29.8061 29.3138 31 26 31H23" stroke="#38B6FF" stroke-width="2.5" stroke-linecap="round"/>
</svg>
