<svg width="89" height="45" viewBox="0 0 89 45" fill="none" xmlns="http://www.w3.org/2000/svg">
<path d="M26.9319 5.252C24.764 3.08399 23.6801 2 22.333 2C20.9859 2 19.902 3.08399 17.734 5.252C16.433 6.55297 15.1438 7.15698 13.289 7.15698C11.6696 7.15698 9.36549 6.84288 8.0999 8.1191C6.84432 9.38523 7.15702 11.6798 7.15702 13.289C7.15702 15.1438 6.55297 16.433 5.25196 17.734C3.08399 19.902 2.00002 20.9859 2 22.333C2.00004 23.6799 3.08403 24.764 5.25202 26.9319C6.70945 28.3894 7.15702 29.3304 7.15702 31.3769C7.15702 32.9965 6.84294 35.3006 8.1192 36.5661C9.38531 37.8217 11.6799 37.509 13.289 37.509C15.2642 37.509 16.2154 37.8953 17.625 39.305C18.8254 40.5054 20.4345 42.666 22.333 42.666C24.2315 42.666 25.8407 40.5054 27.0409 39.305C28.4506 37.8953 29.4018 37.509 31.3769 37.509C32.9861 37.509 35.2807 37.8217 36.5468 36.5661M36.5468 36.5661C37.8231 35.3006 37.509 32.9965 37.509 31.3769C37.509 29.3304 37.9565 28.3894 39.414 26.9319C41.5821 24.764 42.666 23.6799 42.666 22.333C42.666 20.9859 41.5821 19.902 39.414 17.734M36.5468 36.5661H36.5661" stroke="#DC3636" stroke-width="3" stroke-linecap="round" stroke-linejoin="round"/>
<path d="M23 21.9863L32 11.9863" stroke="#DC3636" stroke-width="2" stroke-linecap="round" stroke-linejoin="round"/>
<path d="M23.0733 11.9872L31.9267 22.1139" stroke="#DC3636" stroke-width="2" stroke-linecap="round" stroke-linejoin="round"/>
<path d="M61.54 17.401L61.722 17.427V32H58.992V14.84H62.801L71.095 29.4L70.926 29.439V14.84H73.643V32H69.821L61.54 17.401ZM81.778 32.312C80.66 32.312 79.6633 32.0693 78.788 31.584C77.9213 31.09 77.241 30.4227 76.747 29.582C76.253 28.7327 76.006 27.7707 76.006 26.696C76.006 25.6213 76.253 24.655 76.747 23.797C77.241 22.939 77.9213 22.263 78.788 21.769C79.6633 21.2663 80.66 21.015 81.778 21.015C82.896 21.015 83.884 21.2663 84.742 21.769C85.6 22.263 86.2716 22.939 86.757 23.797C87.251 24.655 87.498 25.6213 87.498 26.696C87.498 27.7707 87.251 28.7327 86.757 29.582C86.2716 30.4227 85.6 31.09 84.742 31.584C83.884 32.0693 82.896 32.312 81.778 32.312ZM81.778 29.972C82.402 29.972 82.9436 29.829 83.403 29.543C83.8623 29.257 84.2176 28.867 84.469 28.373C84.7203 27.879 84.846 27.3157 84.846 26.683C84.846 26.0503 84.7203 25.487 84.469 24.993C84.2176 24.4903 83.8623 24.0917 83.403 23.797C82.9436 23.5023 82.402 23.355 81.778 23.355C81.154 23.355 80.608 23.5023 80.14 23.797C79.6806 24.0917 79.321 24.4903 79.061 24.993C78.8096 25.487 78.684 26.0503 78.684 26.683C78.684 27.3157 78.8096 27.879 79.061 28.373C79.321 28.867 79.6806 29.257 80.14 29.543C80.608 29.829 81.154 29.972 81.778 29.972Z" fill="#DC3636"/>
</svg>
