<svg width="100" height="100" viewBox="0 0 100 100" fill="none" xmlns="http://www.w3.org/2000/svg">
<circle cx="50" cy="50" r="50" fill="#E8F7FF"/>
<path d="M39.75 44.3553C41.2421 44.3553 42.673 43.7603 43.7278 42.7016C44.7826 41.643 45.375 40.2073 45.375 38.7105C45.375 37.2137 44.7826 35.7781 43.7278 34.7194C42.673 33.6607 41.2421 33.0658 39.75 33.0658C38.2579 33.0658 36.827 33.6607 35.7722 34.7194C34.7174 35.7781 34.125 37.2137 34.125 38.7105C34.125 40.2073 34.7174 41.643 35.7722 42.7016C36.827 43.7603 38.2579 44.3553 39.75 44.3553ZM39.75 48.1711C38.5124 48.1711 37.2869 47.9264 36.1435 47.451C35.0001 46.9757 33.9611 46.2789 33.0858 45.4005C32.2106 44.522 31.5163 43.4791 31.0426 42.3312C30.5688 41.1833 30.325 39.953 30.325 38.7105C30.325 37.468 30.5688 36.2377 31.0426 35.0898C31.5163 33.942 32.2106 32.899 33.0858 32.0206C33.9611 31.1422 35.0001 30.4454 36.1435 29.97C37.2869 29.4947 38.5124 29.25 39.75 29.25C42.2494 29.25 44.6466 30.2465 46.4142 32.0206C48.1818 33.7947 49.175 36.2011 49.175 38.7105C49.175 41.2199 48.1818 43.6263 46.4142 45.4005C44.6466 47.1745 42.2494 48.1711 39.75 48.1711ZM62.325 52.9868C63.532 52.9868 64.6894 52.5056 65.5427 51.6492C66.3959 50.7929 66.875 49.6317 66.875 48.4211C66.875 47.2104 66.3958 46.0492 65.5427 45.1929C64.6894 44.3365 63.532 43.8553 62.325 43.8553C61.118 43.8553 59.9606 44.3365 59.1073 45.1929C58.2542 46.0492 57.775 47.2104 57.775 48.4211C57.775 49.6317 58.2542 50.7929 59.1073 51.6492C59.9606 52.5056 61.118 52.9868 62.325 52.9868ZM62.325 56.8026C60.1107 56.8026 57.987 55.9198 56.421 54.348C54.855 52.7763 53.975 50.6443 53.975 48.4211C53.975 46.1978 54.855 44.0658 56.421 42.4941C57.987 40.9223 60.1107 40.0395 62.325 40.0395C64.5393 40.0395 66.663 40.9223 68.229 42.4941C69.7951 44.0658 70.675 46.1978 70.675 48.4211C70.675 50.6443 69.7951 52.7763 68.229 54.348C66.663 55.9198 64.5393 56.8026 62.325 56.8026ZM67.95 69.75V68.9211C67.95 67.4243 67.3576 65.9886 66.3028 64.9299C65.248 63.8713 63.8171 63.2763 62.325 63.2763C60.8329 63.2763 59.402 63.8713 58.3472 64.9299C57.2924 65.9886 56.7 67.4243 56.7 68.9211V69.75H52.9V68.9211C52.9 67.6786 53.1438 66.4482 53.6176 65.3004C54.0913 64.1525 54.7856 63.1096 55.6608 62.2311C56.5361 61.3527 57.5751 60.6559 58.7185 60.1805C59.8619 59.7052 61.0874 59.4605 62.325 59.4605C63.5626 59.4605 64.7881 59.7052 65.9315 60.1805C67.0749 60.6559 68.1139 61.3527 68.9892 62.2311C69.8644 63.1096 70.5587 64.1525 71.0324 65.3004C71.5062 66.4482 71.75 67.6786 71.75 68.9211V69.75H67.95ZM46.45 69.75V61.3684C46.45 59.5855 45.7443 57.8754 44.4879 56.6144C43.2315 55.3533 41.5272 54.6447 39.75 54.6447C37.9728 54.6447 36.2685 55.3533 35.0121 56.6144C33.7557 57.8754 33.05 59.5855 33.05 61.3684V69.75H29.25V61.3684C29.25 58.5729 30.3565 55.892 32.3257 53.9156C34.2949 51.9391 36.9655 50.8289 39.75 50.8289C42.5345 50.8289 45.2051 51.9391 47.1743 53.9156C49.1435 55.892 50.25 58.5729 50.25 61.3684V69.75H46.45Z" fill="#38B6FF" stroke="#E8F7FF" stroke-width="0.5"/>
</svg>
