<svg width="34" height="37" viewBox="0 0 34 37" fill="none" xmlns="http://www.w3.org/2000/svg">
<path d="M7.97083 10.6415C12.9826 11.5163 15.9697 13.346 17 14.3965C18.0303 13.346 21.0173 11.5163 26.0292 10.6415C28.5682 10.1984 29.8377 9.97679 30.9188 10.826C32 11.6753 32 13.0544 32 15.8126V25.7248C32 28.2469 32 29.5079 31.3062 30.2951C30.6122 31.0823 29.0845 31.349 26.0292 31.8823C23.3055 32.3576 21.1798 33.115 19.6412 33.8762C18.1275 34.6251 17.3705 34.9995 17 34.9995C16.6295 34.9995 15.8725 34.6251 14.3588 33.8762C12.8202 33.115 10.6945 32.3576 7.97083 31.8823C4.91548 31.349 3.3878 31.0823 2.6939 30.2951C2 29.5079 2 28.2469 2 25.7248V15.8126C2 13.0544 2 11.6753 3.08117 10.826C4.16235 9.97679 5.43185 10.1984 7.97083 10.6415Z" stroke="#38B6FF" stroke-width="2.5" stroke-linecap="round" stroke-linejoin="round"/>
<path d="M17 13.5498V35.0002" stroke="#38B6FF" stroke-width="2.5" stroke-linejoin="round"/>
<path d="M11.168 3.74667C12.8536 2.64016 14.8495 2 16.989 2C19.1388 2 21.1438 2.64643 22.8346 3.76291M19.705 7.77511C18.9048 7.29702 17.9775 7.02367 16.989 7.02367C16.011 7.02367 15.093 7.29122 14.2986 7.7599" stroke="#38B6FF" stroke-width="2.5" stroke-linecap="round"/>
</svg>
