<svg width="70" height="70" viewBox="0 0 70 70" fill="none" xmlns="http://www.w3.org/2000/svg">
<circle cx="35" cy="35" r="35" fill="#E8F7FF"/>
<path d="M54 34.4494C54 31.7181 51.1997 29.2939 46.2917 27.7473C47.4434 22.6054 46.8014 18.9007 44.4999 17.5344C42.1985 16.1689 38.7564 17.45 35 21.0458C31.2441 17.4496 27.8021 16.1687 25.4999 17.5344C24.4689 18.1464 23.7509 19.2679 23.4029 20.7934C22.3789 20.9869 21.6002 21.9107 21.6002 23.0185C21.6002 24.0796 22.3145 24.9719 23.2746 25.2154C23.3669 26.0199 23.5122 26.8673 23.7085 27.7471C18.8003 29.2938 16 31.718 16 34.4494C16 37.1802 18.8001 39.6041 23.7082 41.1506C22.5572 46.2929 23.1992 49.9977 25.4999 51.3635C26.0949 51.7166 26.7749 51.8926 27.5234 51.8926C28.307 51.8926 29.1656 51.6989 30.0793 51.3139C30.4796 51.7366 31.0383 52 31.6561 52C32.8699 52 33.8575 50.9848 33.8575 49.7371C33.8575 49.474 33.8132 49.2216 33.7326 48.9866C34.1538 48.6361 34.5775 48.257 35.0001 47.8526C37.7711 50.5052 40.3706 51.8981 42.4677 51.8979C43.2136 51.8979 43.8963 51.7217 44.5 51.3635C46.8013 49.9974 47.4434 46.2929 46.2919 41.1515C47.5099 40.7672 48.6116 40.3227 49.5797 39.8247C49.9693 40.1834 50.4834 40.4019 51.0464 40.4019C52.2602 40.4019 53.2478 39.3868 53.2478 38.139C53.2478 37.7821 53.1667 37.4444 53.0229 37.1438C53.6712 36.2879 54 35.3837 54 34.4494ZM43.8449 18.7006C45.5539 19.715 45.992 23.0115 45.029 27.3816C43.3265 26.9297 41.4786 26.6002 39.5231 26.3977C38.3758 24.7579 37.1735 23.2777 35.94 21.9869C39.1402 18.945 42.1364 17.6871 43.8449 18.7006ZM28.0228 38.5906C28.4923 39.4258 28.9834 40.2413 29.4896 41.0287C28.0107 40.8327 26.605 40.5593 25.2915 40.2104C25.6539 38.868 26.126 37.48 26.7014 36.064C27.1143 36.9144 27.556 37.7601 28.0228 38.5906ZM25.2914 28.6874C26.605 28.3383 28.0108 28.065 29.4896 27.8691C28.9833 28.6566 28.4921 29.4722 28.0227 30.3074C27.5557 31.1388 27.114 31.9846 26.7014 32.8345C26.1257 31.4176 25.6536 30.0292 25.2914 28.6874ZM29.1571 37.9171C28.5183 36.7806 27.9275 35.6154 27.3971 34.4494C27.9271 33.2843 28.5179 32.1189 29.1571 30.9809C29.8018 29.8338 30.488 28.7252 31.1988 27.6796C33.684 27.4595 36.315 27.4594 38.802 27.6796C39.5127 28.7252 40.1989 29.8337 40.8436 30.9808C41.4827 32.1182 42.0734 33.2837 42.6036 34.4495C42.0729 35.6161 41.4823 36.7812 40.8437 37.9171C40.199 39.0643 39.5127 40.1728 38.802 41.2184C36.3149 41.4385 33.6839 41.4385 31.1987 41.2184C30.488 40.1728 29.8018 39.0641 29.1571 37.9171ZM41.978 38.5907C42.4447 37.7605 42.8865 36.9149 43.2994 36.0641C43.8742 37.4791 44.346 38.8671 44.7086 40.2104C43.3959 40.5594 41.9903 40.8328 40.5112 41.0287C41.0174 40.2413 41.5085 39.4258 41.978 38.5907ZM43.2993 32.8344C42.8866 31.9842 42.4447 31.1383 41.978 30.3073C41.5085 29.4721 41.0174 28.6566 40.5112 27.8691C41.9902 28.0651 43.3957 28.3385 44.7086 28.6874C44.3461 30.0305 43.8743 31.4188 43.2993 32.8344ZM35.0001 22.925C35.9516 23.9202 36.8852 25.0345 37.7893 26.2534C35.947 26.1394 34.053 26.1394 32.2115 26.2534C33.1151 25.035 34.0486 23.9206 35.0001 22.925ZM26.1548 18.7007C27.8639 17.6866 30.8602 18.9446 34.0602 21.987C32.8265 23.2787 31.6245 24.7587 30.4777 26.3977C28.5227 26.6001 26.6747 26.9297 24.9712 27.3817C24.7987 26.5998 24.6693 25.8475 24.5846 25.1331C25.4129 24.8079 26.0031 23.983 26.0031 23.0186C26.0031 22.1039 25.4721 21.3148 24.7107 20.9583C24.9805 19.8694 25.4644 19.1104 26.1548 18.7007ZM22.9101 23.0186C22.9101 22.5133 23.31 22.1022 23.8016 22.1022C24.2931 22.1022 24.693 22.5133 24.693 23.0186C24.693 23.5238 24.2931 23.9349 23.8016 23.9349C23.31 23.9349 22.9101 23.5238 22.9101 23.0186ZM17.31 34.4494C17.31 32.4214 19.8678 30.383 24.0311 29.0545C24.501 30.7939 25.1466 32.6041 25.9555 34.4493C25.1472 36.2931 24.5014 38.1031 24.0311 39.8435C19.8678 38.5151 17.31 36.4769 17.31 34.4494ZM31.6561 50.6534C31.1645 50.6534 30.7646 50.2423 30.7646 49.7371C30.7646 49.2318 31.1645 48.8207 31.6561 48.8207C32.1476 48.8207 32.5475 49.2318 32.5475 49.7371C32.5475 50.2423 32.1477 50.6534 31.6561 50.6534ZM32.9486 47.9068C32.5854 47.635 32.1389 47.4742 31.6562 47.4742C30.4424 47.4742 29.4548 48.4894 29.4548 49.7371C29.4548 49.8638 29.4654 49.9878 29.485 50.1089C28.4454 50.5309 27.1639 50.796 26.1551 50.1974C24.4468 49.1833 24.0086 45.8868 24.9712 41.5163C26.6745 41.9684 28.5226 42.2979 30.4778 42.5002C31.6248 44.1397 32.8272 45.62 34.0611 46.9118C33.6894 47.2658 33.3176 47.5981 32.9486 47.9068ZM35.0001 45.973C34.0487 44.9775 33.1154 43.8632 32.2118 42.645C33.1317 42.7023 34.0647 42.7317 35 42.7317C35.9354 42.7317 36.8686 42.7023 37.7891 42.645C36.8852 43.8635 35.9516 44.9776 35.0001 45.973ZM43.8451 50.1973C42.1364 51.211 39.1403 49.953 35.94 46.9111C37.1735 45.6202 38.3758 44.1401 39.523 42.5002C41.4788 42.2978 43.3267 41.9682 45.029 41.5164C45.992 45.8864 45.5539 49.1829 43.8451 50.1973ZM51.0464 39.0553C50.5548 39.0553 50.1549 38.6442 50.1549 38.1389C50.1549 37.6336 50.5548 37.2226 51.0464 37.2226C51.5379 37.2226 51.9378 37.6337 51.9378 38.1389C51.9379 38.6442 51.5379 39.0553 51.0464 39.0553ZM52.1052 36.1556C51.7908 35.9776 51.43 35.876 51.0464 35.876C49.8325 35.876 48.8449 36.8912 48.8449 38.1389C48.8449 38.32 48.8663 38.496 48.9056 38.6649C48.0399 39.1034 47.0565 39.4983 45.9692 39.8444C45.4989 38.1025 44.8534 36.2922 44.0453 34.4493C44.8532 32.606 45.4987 30.7957 45.9689 29.0545C50.132 30.383 52.69 32.4215 52.69 34.4494C52.69 35.0206 52.4931 35.5924 52.1052 36.1556Z" fill="#38B6FF"/>
</svg>
