<svg width="100" height="100" viewBox="0 0 100 100" fill="none" xmlns="http://www.w3.org/2000/svg">
<circle cx="50" cy="50" r="50" fill="#E8F7FF"/>
<path d="M68.3333 28H31.6667C29.6416 28 28 29.6416 28 31.6667V68.3333C28 70.3584 29.6416 72 31.6667 72H68.3333C70.3584 72 72 70.3584 72 68.3333V31.6667C72 29.6416 70.3584 28 68.3333 28Z" stroke="#38B6FF" stroke-width="3" stroke-linecap="round" stroke-linejoin="round"/>
<path d="M65.5723 49.1485L65.9077 49.05L65.8096 48.7145L65.4505 47.4854L65.3522 47.1488L65.0158 47.2477L60.2972 48.6355C59.9489 48.167 59.4019 47.8471 58.7584 47.8471C58.5923 47.8471 58.434 47.8701 58.2847 47.9094L55.0372 43.8626C55.1093 43.6694 55.1587 43.455 55.1587 43.2209C55.1587 42.1441 54.2837 41.2691 53.2069 41.2691C52.1299 41.2691 51.2561 42.1444 51.2561 43.2209C51.2561 43.6849 51.4219 44.1069 51.689 44.4385L47.5358 54.6749L43.2367 48.2518C43.3725 48.003 43.47 47.7136 43.47 47.3838C43.47 46.3078 42.5949 45.433 41.5182 45.433C40.4427 45.433 39.5665 46.3077 39.5665 47.3838C39.5665 47.671 39.6414 47.9275 39.7487 48.1531L35.0593 53.9815L34.8399 54.2542L35.1126 54.4736L36.1104 55.2764L36.383 55.4958L36.6025 55.2231L41.3531 49.3196C41.4008 49.329 41.4567 49.3365 41.5182 49.3365C41.5385 49.3365 41.5581 49.3354 41.5766 49.3337L45.986 55.9233C45.8536 56.1696 45.7584 56.4551 45.7584 56.7802C45.7584 57.856 46.6334 58.731 47.7092 58.731C48.7867 58.731 49.662 57.8563 49.662 56.7802C49.662 56.3463 49.5136 55.9572 49.2822 55.642L53.5368 45.1579L56.8771 49.318C56.8363 49.4642 56.8076 49.6242 56.8076 49.797C56.8076 50.8735 57.6823 51.7488 58.7574 51.7488C59.5372 51.7488 60.193 51.2876 60.5056 50.6366L65.5723 49.1485Z" fill="#38B6FF" stroke="#38B6FF" stroke-width="0.7"/>
</svg>
