<svg width="100" height="100" viewBox="0 0 100 100" fill="none" xmlns="http://www.w3.org/2000/svg">
<circle cx="50" cy="50" r="50" fill="#E8F7FF"/>
<path d="M72.001 72H27.334" stroke="#38B6FF" stroke-width="3.35002" stroke-linecap="round"/>
<path d="M69.7673 71.9986V55.2485C69.7673 53.3984 68.2674 51.8984 66.4173 51.8984H59.7172C57.8671 51.8984 56.3672 53.3984 56.3672 55.2485V71.9986" stroke="#38B6FF" stroke-width="3.35002"/>
<path d="M56.3688 71.999V34.0321C56.3688 30.8737 56.3688 29.2944 55.3877 28.3132C54.4064 27.332 52.8272 27.332 49.6688 27.332C46.5104 27.332 44.9311 27.332 43.9499 28.3132C42.9687 29.2944 42.9688 30.8737 42.9688 34.0321V71.999" stroke="#38B6FF" stroke-width="3.35002"/>
<path d="M42.9685 71.9993V44.0824C42.9685 42.2323 41.4686 40.7324 39.6184 40.7324H32.9184C31.0682 40.7324 29.5684 42.2323 29.5684 44.0824V71.9993" stroke="#38B6FF" stroke-width="3.35002"/>
</svg>
