<svg width="140" height="140" viewBox="0 0 140 140" fill="none" xmlns="http://www.w3.org/2000/svg">
<circle cx="70" cy="70" r="70" fill="#E8F7FF"/>
<path d="M102.725 82.1617V64.4257L103.825 63.843C104.541 63.4693 104.991 62.7283 105 61.9171C105.009 61.1058 104.573 60.3583 103.867 59.9691L70.9633 42.2704C70.305 41.9077 69.509 41.9099 68.8463 42.277L36.122 59.9977C35.4243 60.389 34.9957 61.1278 35 61.9324C35.0044 62.7371 35.444 63.4715 36.1482 63.854L50.5257 71.5469C50.3463 71.8657 50.2348 72.2307 50.2348 72.6242V91.2287C50.2348 91.8553 50.5016 92.4555 50.9674 92.871C51.442 93.2932 55.9866 97 69.8808 97C83.7268 97 88.3939 93.4976 88.8816 93.0997C89.3911 92.6842 89.6842 92.0576 89.6842 91.398V72.3164C89.6842 72.0086 89.6208 71.714 89.507 71.448L98.3513 66.7518V82.1771C97.0544 82.94 96.1753 84.3383 96.1753 85.9565C96.1753 88.3859 98.1326 90.3537 100.549 90.3537C102.966 90.3537 104.923 88.3859 104.923 85.9565C104.923 84.3273 104.033 82.9202 102.725 82.1617ZM85.3102 90.1382C83.5912 90.9693 79.0422 92.605 69.8808 92.605C60.6625 92.605 56.2163 90.8637 54.6088 90.0261V73.7345L68.8113 81.335C69.135 81.5109 69.4937 81.5989 69.8501 81.5989C70.1979 81.5989 70.5456 81.5153 70.8627 81.3482L85.3124 73.6773V90.1404L85.3102 90.1382ZM69.8655 76.9071L41.7339 61.8907L69.9136 46.7094L98.1808 61.8489L69.8655 76.9071Z" fill="#38B6FF"/>
</svg>
