<svg width="100" height="100" viewBox="0 0 100 100" fill="none" xmlns="http://www.w3.org/2000/svg">
<circle cx="50" cy="50" r="50" fill="#E8F7FF"/>
<path d="M58.1652 34.1665C58.1652 29.6563 54.5089 26 49.9986 26C45.4884 26 41.8321 29.6563 41.8321 34.1665V47.7774C41.8321 52.2877 45.4884 55.944 49.9986 55.944C54.5089 55.944 58.1652 52.2877 58.1652 47.7774V34.1665Z" stroke="#38B6FF" stroke-width="4" stroke-linejoin="round"/>
<path d="M30.9434 47.7775C30.9434 52.8312 32.951 57.678 36.5245 61.2514C40.0981 64.8251 44.9449 66.8327 49.9986 66.8327C55.0523 66.8327 59.8992 64.8251 63.4726 61.2514C67.0463 57.678 69.0539 52.8312 69.0539 47.7775" stroke="#38B6FF" stroke-width="4" stroke-linecap="round" stroke-linejoin="round"/>
<path d="M49.998 74.999V69.5547" stroke="#38B6FF" stroke-width="4" stroke-linecap="round" stroke-linejoin="round"/>
</svg>
