<svg width="60" height="60" viewBox="0 0 60 60" fill="none" xmlns="http://www.w3.org/2000/svg">
<path d="M12.5 25.0003V40.028C12.5 40.9255 12.5 41.374 12.6366 41.7703C12.7575 42.1205 12.9547 42.4397 13.214 42.7042C13.5072 43.0037 13.9085 43.2045 14.7111 43.6058L28.2113 50.3557C28.867 50.6837 29.195 50.8478 29.539 50.9123C29.8438 50.9693 30.1562 50.9693 30.461 50.9123C30.805 50.8478 31.133 50.6837 31.7887 50.3557L45.2887 43.6058C46.0915 43.2045 46.4927 43.0037 46.786 42.7042C47.0452 42.4397 47.2425 42.1205 47.3632 41.7703C47.5 41.374 47.5 40.9255 47.5 40.028V25.0003M5 21.2502L29.1055 9.19738C29.4335 9.03341 29.5975 8.95141 29.7695 8.91916C29.9217 8.89056 30.0783 8.89056 30.2305 8.91916C30.4025 8.95141 30.5665 9.03341 30.8945 9.19738L55 21.2502L30.8945 33.303C30.5665 33.467 30.4025 33.549 30.2305 33.5813C30.0783 33.6098 29.9217 33.6098 29.7695 33.5813C29.5975 33.549 29.4335 33.467 29.1055 33.303L5 21.2502Z" stroke="#38B6FF" stroke-width="4.16667" stroke-linecap="round" stroke-linejoin="round"/>
</svg>
