<svg width="70" height="70" viewBox="0 0 70 70" fill="none" xmlns="http://www.w3.org/2000/svg">
<circle cx="35" cy="35" r="35" fill="#E8F7FF"/>
<path d="M54 35C54 45.4935 45.4935 54 35 54C24.5066 54 16 45.4935 16 35C16 24.5066 24.5066 16 35 16C45.4935 16 54 24.5066 54 35Z" stroke="#38B6FF" stroke-width="3"/>
<path d="M17.0547 32.8887H22.3325C24.6643 32.8887 26.5547 34.779 26.5547 37.1109C26.5547 39.4428 28.445 41.3331 30.7769 41.3331C33.1088 41.3331 34.9991 43.2234 34.9991 45.5553V52.9442" stroke="#38B6FF" stroke-width="3" stroke-linecap="round" stroke-linejoin="round"/>
<path d="M26.5547 18.1113V20.2224C26.5547 22.5543 28.445 24.4447 30.7769 24.4447H31.0849C33.2467 24.4447 34.9991 26.1971 34.9991 28.3589C34.9991 29.8415 35.8368 31.1968 37.1628 31.8599L37.3332 31.945C38.5217 32.5393 39.921 32.5393 41.1095 31.945L41.2799 31.8599C42.6059 31.1968 43.4436 29.8415 43.4436 28.3589C43.4436 26.1971 45.196 24.4447 47.3578 24.4447H50.8325" stroke="#38B6FF" stroke-width="3" stroke-linecap="round" stroke-linejoin="round"/>
<path d="M43.4453 50.834V45.5562C43.4453 43.2243 45.3356 41.334 47.6675 41.334H51.8898" stroke="#38B6FF" stroke-width="3" stroke-linecap="round" stroke-linejoin="round"/>
</svg>
