<svg width="264" height="32" viewBox="0 0 264 32" fill="none" xmlns="http://www.w3.org/2000/svg">
<path d="M94 0H125.875V32H94V0ZM128.531 0H160.406V32H128.531V0ZM163.062 0H194.938V32H163.062V0ZM197.594 0H229.469V32H197.594V0ZM232.125 0H264V32H232.125V0Z" fill="#00B67A"/>
<path d="M109.937 21.5661L114.785 20.3327L116.811 26.5994L109.937 21.5661ZM121.094 13.4661H112.561L109.937 5.39941L107.314 13.4661H98.7812L105.687 18.4661L103.064 26.5327L109.971 21.5327L114.221 18.4661L121.094 13.4661ZM144.469 21.5661L149.316 20.3327L151.342 26.5994L144.469 21.5661ZM155.625 13.4661H147.092L144.469 5.39941L141.846 13.4661H133.312L140.219 18.4661L137.596 26.5327L144.502 21.5327L148.752 18.4661L155.625 13.4661ZM179 21.5661L183.848 20.3327L185.873 26.5994L179 21.5661ZM190.156 13.4661H181.623L179 5.39941L176.377 13.4661H167.844L174.75 18.4661L172.127 26.5327L179.033 21.5327L183.283 18.4661L190.156 13.4661ZM213.531 21.5661L218.379 20.3327L220.404 26.5994L213.531 21.5661ZM224.687 13.4661H216.154L213.531 5.39941L210.908 13.4661H202.375L209.281 18.4661L206.658 26.5327L213.564 21.5327L217.814 18.4661L224.687 13.4661ZM248.062 21.5661L252.91 20.3327L254.936 26.5994L248.062 21.5661ZM259.219 13.4661H250.686L248.062 5.39941L245.439 13.4661H236.906L243.812 18.4661L241.189 26.5327L248.096 21.5327L252.346 18.4661L259.219 13.4661Z" fill="white"/>
<path d="M1.11 8.8H8.91V10.35H2.8V14.63H8.79V16.14H2.8V20.45H8.91V22H1.11V8.8ZM16.4078 17.66L19.9678 22H17.9678L15.3378 18.73L12.7178 22H10.8278L14.3778 17.76L11.1878 13.79H13.1978L15.4278 16.64L17.6978 13.79H19.5578L16.4078 17.66ZM25.3106 20.8C25.8306 20.8 26.2506 20.7167 26.5706 20.55C26.8906 20.3833 27.0906 20.2633 27.1706 20.19L28.0206 21.44C27.954 21.5 27.794 21.5967 27.5406 21.73C27.294 21.8567 26.974 21.9733 26.5806 22.08C26.194 22.1867 25.754 22.24 25.2606 22.24C24.5073 22.24 23.8073 22.0733 23.1606 21.74C22.514 21.4 21.9906 20.9067 21.5906 20.26C21.1973 19.6133 21.0006 18.8233 21.0006 17.89C21.0006 16.95 21.1973 16.16 21.5906 15.52C21.9906 14.8733 22.514 14.3833 23.1606 14.05C23.8073 13.7167 24.5073 13.55 25.2606 13.55C25.7473 13.55 26.1806 13.61 26.5606 13.73C26.9406 13.8433 27.254 13.97 27.5006 14.11C27.7473 14.25 27.9106 14.3567 27.9906 14.43L27.1306 15.68C27.0773 15.6267 26.974 15.5467 26.8206 15.44C26.674 15.3267 26.474 15.2233 26.2206 15.13C25.9673 15.0367 25.664 14.99 25.3106 14.99C24.884 14.99 24.4673 15.1067 24.0606 15.34C23.6606 15.5667 23.3306 15.8967 23.0706 16.33C22.8106 16.7633 22.6806 17.2833 22.6806 17.89C22.6806 18.4967 22.8106 19.02 23.0706 19.46C23.3306 19.8933 23.6606 20.2267 24.0606 20.46C24.4673 20.6867 24.884 20.8 25.3106 20.8ZM30.8314 18.25C30.8381 18.7433 30.9447 19.1933 31.1514 19.6C31.3581 20.0067 31.6647 20.33 32.0714 20.57C32.4847 20.81 32.9914 20.93 33.5914 20.93C34.0981 20.93 34.5281 20.8567 34.8814 20.71C35.2414 20.5567 35.5347 20.3767 35.7614 20.17C35.9881 19.9567 36.1514 19.7667 36.2514 19.6L37.1014 20.65C36.8814 20.97 36.6114 21.25 36.2914 21.49C35.9781 21.73 35.5947 21.9133 35.1414 22.04C34.6881 22.1733 34.1347 22.24 33.4814 22.24C32.6014 22.24 31.8381 22.0533 31.1914 21.68C30.5514 21.3 30.0581 20.7767 29.7114 20.11C29.3647 19.4367 29.1914 18.6667 29.1914 17.8C29.1914 17 29.3547 16.28 29.6814 15.64C30.0081 14.9933 30.4814 14.4833 31.1014 14.11C31.7281 13.7367 32.4814 13.55 33.3614 13.55C34.1681 13.55 34.8681 13.72 35.4614 14.06C36.0614 14.3933 36.5247 14.8667 36.8514 15.48C37.1847 16.0933 37.3514 16.8267 37.3514 17.68C37.3514 17.7333 37.3481 17.83 37.3414 17.97C37.3347 18.1033 37.3281 18.1967 37.3214 18.25H30.8314ZM35.6914 16.94C35.6847 16.6667 35.6047 16.3667 35.4514 16.04C35.3047 15.7133 35.0647 15.4333 34.7314 15.2C34.3981 14.9667 33.9481 14.85 33.3814 14.85C32.7947 14.85 32.3214 14.9633 31.9614 15.19C31.6081 15.4167 31.3481 15.6933 31.1814 16.02C31.0147 16.34 30.9181 16.6467 30.8914 16.94H35.6914ZM41.0827 22H39.3327V8.24H41.0827V22ZM45.3991 22H43.6491V8.24H45.3991V22ZM48.9955 18.25C49.0021 18.7433 49.1088 19.1933 49.3155 19.6C49.5221 20.0067 49.8288 20.33 50.2355 20.57C50.6488 20.81 51.1555 20.93 51.7555 20.93C52.2621 20.93 52.6921 20.8567 53.0455 20.71C53.4055 20.5567 53.6988 20.3767 53.9255 20.17C54.1521 19.9567 54.3155 19.7667 54.4155 19.6L55.2655 20.65C55.0455 20.97 54.7755 21.25 54.4555 21.49C54.1421 21.73 53.7588 21.9133 53.3055 22.04C52.8521 22.1733 52.2988 22.24 51.6455 22.24C50.7655 22.24 50.0021 22.0533 49.3555 21.68C48.7155 21.3 48.2221 20.7767 47.8755 20.11C47.5288 19.4367 47.3555 18.6667 47.3555 17.8C47.3555 17 47.5188 16.28 47.8455 15.64C48.1721 14.9933 48.6455 14.4833 49.2655 14.11C49.8921 13.7367 50.6455 13.55 51.5255 13.55C52.3321 13.55 53.0321 13.72 53.6255 14.06C54.2255 14.3933 54.6888 14.8667 55.0155 15.48C55.3488 16.0933 55.5155 16.8267 55.5155 17.68C55.5155 17.7333 55.5121 17.83 55.5055 17.97C55.4988 18.1033 55.4921 18.1967 55.4855 18.25H48.9955ZM53.8555 16.94C53.8488 16.6667 53.7688 16.3667 53.6155 16.04C53.4688 15.7133 53.2288 15.4333 52.8955 15.2C52.5621 14.9667 52.1121 14.85 51.5455 14.85C50.9588 14.85 50.4855 14.9633 50.1255 15.19C49.7721 15.4167 49.5121 15.6933 49.3455 16.02C49.1788 16.34 49.0821 16.6467 49.0555 16.94H53.8555ZM62.0267 13.55C62.5667 13.55 63.0901 13.6633 63.5967 13.89C64.1101 14.1167 64.5301 14.4767 64.8567 14.97C65.1901 15.4567 65.3567 16.0933 65.3567 16.88V22H63.5967V17.22C63.5967 16.4067 63.4067 15.8167 63.0267 15.45C62.6467 15.0767 62.1567 14.89 61.5567 14.89C61.1634 14.89 60.7834 15.0033 60.4167 15.23C60.0567 15.45 59.7601 15.7567 59.5267 16.15C59.2934 16.5367 59.1767 16.9767 59.1767 17.47V22H57.4367V13.79H59.1767V15.25C59.2367 15.0233 59.4001 14.7767 59.6667 14.51C59.9334 14.2433 60.2734 14.0167 60.6867 13.83C61.1001 13.6433 61.5467 13.55 62.0267 13.55ZM66.932 13.79H68.542V10.42H70.272V13.79H72.382V15.28H70.272V19.34C70.272 19.82 70.3554 20.1733 70.522 20.4C70.6954 20.6267 70.9254 20.74 71.212 20.74C71.4654 20.74 71.662 20.6933 71.802 20.6C71.942 20.5067 72.0254 20.4433 72.052 20.41L72.742 21.69C72.702 21.7233 72.5954 21.7867 72.422 21.88C72.2487 21.9733 72.0254 22.0567 71.752 22.13C71.4787 22.2033 71.1587 22.24 70.792 22.24C70.152 22.24 69.6154 22.0467 69.182 21.66C68.7554 21.2667 68.542 20.6467 68.542 19.8V15.28H66.932V13.79Z" fill="black"/>
</svg>
