<svg width="134" height="38" viewBox="0 0 134 38" fill="none" xmlns="http://www.w3.org/2000/svg">
<path d="M38.1681 11.3398H51.3198V13.7947H46.1415V27.6332H43.3031V13.7947H38.1465L38.1681 11.3398ZM50.7565 15.8368H53.1832V18.1179H53.2265C53.3132 17.792 53.4648 17.4879 53.6815 17.1837C53.8982 16.8796 54.1582 16.5972 54.4832 16.3582C54.7865 16.0975 55.1332 15.902 55.5232 15.7499C55.8915 15.5978 56.2815 15.5109 56.6715 15.5109C56.9748 15.5109 57.1915 15.5327 57.2998 15.5327C57.4082 15.5544 57.5382 15.5761 57.6465 15.5761V18.0744C57.4732 18.031 57.2782 18.0092 57.0832 17.9875C56.8882 17.9658 56.7148 17.9441 56.5198 17.9441C56.0865 17.9441 55.6748 18.031 55.2848 18.2048C54.8948 18.3786 54.5698 18.6392 54.2665 18.9651C53.9848 19.3127 53.7465 19.7255 53.5732 20.2251C53.3998 20.7248 53.3132 21.3114 53.3132 21.9631V27.568H50.7132L50.7565 15.8368ZM69.5632 27.6332H67.0065V25.9821H66.9632C66.6382 26.5904 66.1615 27.0466 65.5332 27.4159C64.9048 27.7852 64.2548 27.959 63.6048 27.959C62.0665 27.959 60.9398 27.5897 60.2465 26.8076C59.5532 26.0473 59.2065 24.8742 59.2065 23.3317V15.8368H61.8065V23.071C61.8065 24.1138 62.0015 24.8524 62.4132 25.2652C62.8032 25.6997 63.3665 25.9169 64.0815 25.9169C64.6232 25.9169 65.0782 25.83 65.4465 25.6562C65.8148 25.4824 66.1182 25.2652 66.3348 24.9828C66.5732 24.7004 66.7248 24.3528 66.8332 23.9617C66.9415 23.5707 66.9848 23.1362 66.9848 22.68V15.8368H69.5848V27.6332H69.5632ZM73.9832 23.8531C74.0698 24.6135 74.3515 25.1349 74.8498 25.4607C75.3482 25.7649 75.9548 25.9169 76.6482 25.9169C76.8865 25.9169 77.1682 25.8952 77.4715 25.8518C77.7748 25.8083 78.0782 25.7431 78.3382 25.6345C78.6198 25.5259 78.8365 25.3738 79.0098 25.1566C79.1832 24.9393 79.2698 24.6786 79.2482 24.3528C79.2265 24.0269 79.1182 23.7445 78.8798 23.5272C78.6415 23.31 78.3598 23.1579 78.0132 23.0059C77.6665 22.8755 77.2548 22.7669 76.7998 22.68C76.3448 22.5931 75.8898 22.4845 75.4132 22.3759C74.9365 22.2672 74.4598 22.1369 74.0048 21.9848C73.5498 21.8327 73.1598 21.6372 72.7915 21.3548C72.4448 21.0941 72.1415 20.7682 71.9465 20.3555C71.7298 19.9427 71.6215 19.4648 71.6215 18.8565C71.6215 18.2048 71.7732 17.6834 72.0982 17.2489C72.4015 16.8144 72.8132 16.4668 73.2898 16.2061C73.7665 15.9454 74.3082 15.7499 74.8932 15.6413C75.4782 15.5327 76.0415 15.4892 76.5615 15.4892C77.1682 15.4892 77.7532 15.5544 78.2948 15.6847C78.8365 15.8151 79.3565 16.0106 79.7898 16.3147C80.2448 16.5972 80.6132 16.9882 80.8948 17.4444C81.1982 17.9006 81.3715 18.4655 81.4582 19.1172H78.7498C78.6198 18.4872 78.3382 18.0744 77.9048 17.8572C77.4498 17.6399 76.9515 17.5313 76.3665 17.5313C76.1932 17.5313 75.9548 17.553 75.7165 17.5748C75.4565 17.6182 75.2398 17.6617 75.0015 17.7486C74.7848 17.8355 74.5898 17.9658 74.4382 18.1179C74.2865 18.2699 74.1998 18.4872 74.1998 18.7479C74.1998 19.0737 74.3082 19.3127 74.5248 19.5082C74.7415 19.7037 75.0232 19.8558 75.3915 20.0079C75.7382 20.1382 76.1498 20.2469 76.6048 20.3338C77.0598 20.4207 77.5365 20.5293 78.0132 20.6379C78.4898 20.7465 78.9448 20.8769 79.3998 21.0289C79.8548 21.181 80.2665 21.3765 80.6132 21.659C80.9598 21.9196 81.2632 22.2455 81.4798 22.6365C81.6965 23.0276 81.8048 23.5272 81.8048 24.0921C81.8048 24.7873 81.6532 25.3738 81.3282 25.8735C81.0032 26.3514 80.5915 26.7642 80.0932 27.0683C79.5948 27.3725 79.0098 27.5897 78.4032 27.7418C77.7748 27.8721 77.1682 27.959 76.5615 27.959C75.8248 27.959 75.1315 27.8721 74.5032 27.6983C73.8748 27.5245 73.3115 27.2639 72.8565 26.938C72.4015 26.5904 72.0332 26.1776 71.7732 25.6562C71.5132 25.1566 71.3615 24.5483 71.3398 23.8314H73.9615V23.8531H73.9832ZM82.5415 15.8368H84.5132V12.274H87.1132V15.8151H89.4532V17.7486H87.1132V24.0486C87.1132 24.3311 87.1348 24.5483 87.1565 24.7655C87.1782 24.9611 87.2432 25.1349 87.3082 25.2652C87.3948 25.3955 87.5248 25.5042 87.6765 25.5693C87.8498 25.6345 88.0665 25.678 88.3698 25.678C88.5432 25.678 88.7382 25.678 88.9115 25.6562C89.0848 25.6345 89.2798 25.6128 89.4532 25.5693V27.5897C89.1715 27.6332 88.8898 27.6549 88.6082 27.6766C88.3265 27.7201 88.0665 27.7201 87.7632 27.7201C87.0698 27.7201 86.5282 27.6549 86.1165 27.5245C85.7048 27.3942 85.3798 27.1987 85.1415 26.9597C84.9032 26.699 84.7515 26.3949 84.6648 26.0256C84.5782 25.6562 84.5348 25.2 84.5132 24.7221V17.7703H82.5415V15.7934V15.8368ZM91.2732 15.8368H93.7215V17.4444H93.7648C94.1332 16.7492 94.6315 16.2713 95.2815 15.9671C95.9315 15.663 96.6248 15.5109 97.4048 15.5109C98.3365 15.5109 99.1382 15.663 99.8315 16.0106C100.525 16.3365 101.088 16.7709 101.543 17.3575C101.998 17.9223 102.345 18.5958 102.561 19.3562C102.778 20.1165 102.908 20.942 102.908 21.7893C102.908 22.5931 102.8 23.3535 102.605 24.0921C102.388 24.8307 102.085 25.5042 101.673 26.069C101.261 26.6338 100.741 27.0901 100.091 27.4376C99.4415 27.7852 98.7048 27.959 97.8382 27.959C97.4698 27.959 97.0798 27.9156 96.7115 27.8504C96.3432 27.7852 95.9748 27.6766 95.6282 27.5245C95.2815 27.3725 94.9565 27.177 94.6748 26.938C94.3715 26.699 94.1332 26.4166 93.9382 26.1125H93.8948V31.9998H91.2948V15.8368H91.2732ZM100.351 21.7458C100.351 21.2245 100.287 20.7031 100.135 20.2034C100.005 19.7037 99.7882 19.2693 99.5065 18.8782C99.2248 18.4872 98.8782 18.183 98.4882 17.9441C98.0765 17.7051 97.5998 17.5965 97.0798 17.5965C95.9965 17.5965 95.1732 17.9658 94.6098 18.7262C94.0682 19.4865 93.7865 20.5076 93.7865 21.7676C93.7865 22.3759 93.8515 22.919 94.0032 23.4186C94.1548 23.9183 94.3498 24.3528 94.6532 24.7221C94.9348 25.0914 95.2815 25.3738 95.6932 25.5911C96.1048 25.8083 96.5598 25.9169 97.1015 25.9169C97.7082 25.9169 98.1848 25.7866 98.5965 25.5476C99.0082 25.3087 99.3332 24.9828 99.6148 24.6135C99.8748 24.2224 100.07 23.7879 100.178 23.2883C100.286 22.7669 100.351 22.2672 100.351 21.7458ZM104.923 11.3398H107.523V13.7947H104.923V11.3398ZM104.923 15.8368H107.523V27.6332H104.923V15.8368ZM109.841 11.3398H112.441V27.6332H109.841V11.3398ZM120.371 27.959C119.44 27.959 118.595 27.807 117.858 27.4811C117.122 27.1552 116.515 26.7425 115.995 26.1994C115.496 25.6562 115.106 24.9828 114.846 24.2224C114.586 23.4621 114.435 22.6148 114.435 21.7241C114.435 20.8334 114.565 20.0079 114.846 19.2475C115.106 18.4872 115.496 17.8354 115.995 17.2706C116.493 16.7275 117.122 16.293 117.858 15.9889C118.595 15.6847 119.44 15.5109 120.371 15.5109C121.303 15.5109 122.148 15.663 122.885 15.9889C123.621 16.293 124.228 16.7275 124.748 17.2706C125.247 17.8137 125.636 18.4872 125.896 19.2475C126.157 20.0079 126.308 20.8334 126.308 21.7241C126.308 22.6365 126.178 23.4621 125.896 24.2224C125.615 24.9828 125.247 25.6345 124.748 26.1994C124.25 26.7425 123.621 27.177 122.885 27.4811C122.148 27.7852 121.325 27.959 120.371 27.959ZM120.371 25.8952C120.935 25.8952 121.455 25.7649 121.867 25.5259C122.3 25.2869 122.625 24.9611 122.907 24.57C123.188 24.179 123.383 23.7228 123.513 23.2448C123.643 22.7452 123.708 22.2455 123.708 21.7241C123.708 21.2245 123.643 20.7248 123.513 20.2251C123.383 19.7255 123.188 19.291 122.907 18.8999C122.625 18.5089 122.278 18.2048 121.867 17.9658C121.433 17.7268 120.935 17.5965 120.371 17.5965C119.808 17.5965 119.288 17.7268 118.877 17.9658C118.443 18.2048 118.118 18.5306 117.837 18.8999C117.555 19.291 117.36 19.7255 117.23 20.2251C117.1 20.7248 117.035 21.2245 117.035 21.7241C117.035 22.2455 117.1 22.7452 117.23 23.2448C117.36 23.7445 117.555 24.179 117.837 24.57C118.118 24.9611 118.465 25.2869 118.877 25.5259C119.31 25.7866 119.808 25.8952 120.371 25.8952ZM127.088 15.8368H129.06V12.274H131.66V15.8151H134V17.7486H131.66V24.0486C131.66 24.3311 131.682 24.5483 131.703 24.7655C131.725 24.9611 131.79 25.1349 131.855 25.2652C131.941 25.3955 132.072 25.5042 132.223 25.5693C132.396 25.6345 132.613 25.678 132.917 25.678C133.09 25.678 133.285 25.678 133.458 25.6562C133.632 25.6345 133.827 25.6128 134 25.5693V27.5897C133.718 27.6332 133.437 27.6549 133.155 27.6766C132.873 27.7201 132.613 27.7201 132.31 27.7201C131.617 27.7201 131.075 27.6549 130.663 27.5245C130.251 27.3942 129.926 27.1987 129.688 26.9597C129.45 26.699 129.298 26.3949 129.212 26.0256C129.125 25.6562 129.082 25.2 129.06 24.7221V17.7703H127.088V15.7934V15.8368Z" fill="black"/>
<g filter="url(#filter0_d_4_8310)">
<path d="M35.1331 11.3402H23.2381L19.5764 0L15.8931 11.3402L3.99805 11.3184L13.618 18.3354L9.93472 29.6756L19.5547 22.6586L29.1747 29.6756L25.5131 18.3354L35.1331 11.3402Z" fill="#00B67A"/>
</g>
<path d="M26.3381 20.8989L25.5148 18.3359L19.5781 22.6583L26.3381 20.8989Z" fill="#005128"/>
<defs>
<filter id="filter0_d_4_8310" x="-0.00195312" y="0" width="39.135" height="37.6758" filterUnits="userSpaceOnUse" color-interpolation-filters="sRGB">
<feFlood flood-opacity="0" result="BackgroundImageFix"/>
<feColorMatrix in="SourceAlpha" type="matrix" values="0 0 0 0 0 0 0 0 0 0 0 0 0 0 0 0 0 0 127 0" result="hardAlpha"/>
<feOffset dy="4"/>
<feGaussianBlur stdDeviation="2"/>
<feComposite in2="hardAlpha" operator="out"/>
<feColorMatrix type="matrix" values="0 0 0 0 0 0 0 0 0 0 0 0 0 0 0 0 0 0 0.25 0"/>
<feBlend mode="normal" in2="BackgroundImageFix" result="effect1_dropShadow_4_8310"/>
<feBlend mode="normal" in="SourceGraphic" in2="effect1_dropShadow_4_8310" result="shape"/>
</filter>
</defs>
</svg>
