<svg width="80" height="109" viewBox="0 0 80 109" fill="none" xmlns="http://www.w3.org/2000/svg">
<path d="M60.0333 96.9163C59.3621 97.0868 59.1451 97.2446 58.8776 97.2659C41.3285 95.2247 17.325 98.0971 8.23678 85.1773C5.93194 81.9207 4.70713 78.1099 4.47648 74.0092C3.89428 65.2324 9.7102 56.8817 19.1425 52.8531C24.048 50.7301 29.0691 49.417 34.2864 50.1245C35.3404 51.9829 36.3135 53.8713 37.4786 55.5337C39.3951 58.2361 42.1596 60.005 46.0247 60.282C48.8756 60.5462 51.298 59.6509 52.1866 58.0822C53.353 56.0233 52.6472 54.1137 51.0178 52.933C48.7578 51.2877 46.2252 49.8981 43.6623 48.6748C41.9974 47.8948 40.0044 47.4686 38.1729 46.9827C36.6974 38.7687 44.1273 32.3019 55.6475 31.6877C56.3737 32.6596 57.1252 33.6996 57.9322 34.6416C61.0343 38.0687 65.1561 40.0337 70.5302 39.6754C72.589 39.5347 74.6833 38.9932 75.7689 36.9642C76.5768 35.4253 75.871 33.5157 73.8733 32.0835C70.6649 29.8585 66.7344 28.9081 62.6625 28.32C61.2245 28.1538 59.7865 27.9876 58.3736 27.8896C55.5776 15.3575 65.1292 2.21533 79.3285 2.39386C78.9201 1.53708 78.7236 0.757019 78.2494 0.467175C77.6692 0.13897 76.6802 0.194421 75.903 0.326591C68.6363 1.77189 62.5095 4.81138 58.8237 10.9796C56.0266 15.5791 54.7735 20.3832 54.6102 25.4046C54.5948 26.1079 54.5795 26.8113 54.4833 27.5444C54.5085 27.6126 54.3723 27.7405 54.1249 28.0645C53.373 28.2649 52.4848 28.5931 51.5461 28.785C40.1969 31.3515 35.4521 35.8957 33.5965 46.2711C32.5267 46.3563 31.2955 46.5013 30.1197 46.5482C23.2469 47.0728 16.9791 49.2342 11.3362 53.3351C2.14014 59.9894 -1.73362 69.8704 1.01802 79.5508C2.5047 84.8151 5.36919 89.3377 9.31372 93.3061C18.9027 102.863 41.0345 98.8991 56.3083 99.9983C57.0803 100.101 57.9078 100.105 58.6798 100.207C58.7857 100.245 58.9169 100.352 59.3104 100.672C56.7667 102.232 54.1072 102.982 51.4729 103.801C48.9445 104.658 46.2851 105.408 43.4893 106.286C44.3869 107.97 45.7694 108.234 47.2933 108.136C49.0594 107.948 50.876 107.897 52.5161 107.369C56.9268 105.894 61.393 104.321 65.7585 102.475C69.1549 100.987 69.5441 99.0601 67.1278 97.24C61.952 93.4166 56.6955 89.623 51.4389 85.8294C50.5712 85.2199 49.5925 84.8065 48.3514 84.1799C47.3717 86.2473 48.421 87.0998 49.3643 87.914C52.9863 90.7613 56.366 93.6981 60.0333 96.9163ZM72.5903 35.8134C66.792 37.2586 62.2109 35.5409 60.4059 31.4019C64.8764 32.0753 69.1098 32.6037 72.5903 35.8134ZM49.205 56.471C44.0881 57.2769 40.819 55.3844 39.766 51.045C43.6409 52.0935 47.0617 53.1548 49.205 56.471Z" fill="#38B6FF"/>
</svg>
