<svg width="94" height="45" viewBox="0 0 94 45" fill="none" xmlns="http://www.w3.org/2000/svg">
<path d="M26.9319 5.252C24.764 3.08399 23.6801 2 22.333 2C20.9859 2 19.902 3.08399 17.734 5.252C16.433 6.55297 15.1438 7.15698 13.289 7.15698C11.6696 7.15698 9.36549 6.84288 8.0999 8.1191C6.84432 9.38523 7.15702 11.6798 7.15702 13.289C7.15702 15.1438 6.55297 16.433 5.25196 17.734C3.08399 19.902 2.00002 20.9859 2 22.333C2.00004 23.6799 3.08403 24.764 5.25202 26.9319C6.70945 28.3894 7.15702 29.3304 7.15702 31.3769C7.15702 32.9965 6.84294 35.3006 8.1192 36.5661C9.38531 37.8217 11.6799 37.509 13.289 37.509C15.2642 37.509 16.2154 37.8953 17.625 39.305C18.8254 40.5054 20.4345 42.666 22.333 42.666C24.2315 42.666 25.8407 40.5054 27.0409 39.305C28.4506 37.8953 29.4018 37.509 31.3769 37.509C32.9861 37.509 35.2807 37.8217 36.5468 36.5661M36.5468 36.5661C37.8231 35.3006 37.509 32.9965 37.509 31.3769C37.509 29.3304 37.9565 28.3894 39.414 26.9319C41.5821 24.764 42.666 23.6799 42.666 22.333C42.666 20.9859 41.5821 19.902 39.414 17.734M36.5468 36.5661H36.5661" stroke="#08B463" stroke-width="3" stroke-linecap="round" stroke-linejoin="round"/>
<path d="M15.2168 17.2497L22.3333 24.3662L40.6335 4.0332" stroke="#08B463" stroke-width="3" stroke-linecap="round" stroke-linejoin="round"/>
<path d="M63.334 25.825L57.51 14.84H60.825L64.699 22.666L68.56 14.84H71.862L66.064 25.825V32H63.334V25.825ZM73.8071 27.32C73.8245 27.8833 73.9588 28.3903 74.2101 28.841C74.4615 29.2917 74.8298 29.647 75.3151 29.907C75.8091 30.1583 76.4115 30.284 77.1221 30.284C77.7375 30.284 78.2661 30.2017 78.7081 30.037C79.1588 29.8637 79.5315 29.66 79.8261 29.426C80.1208 29.1833 80.3375 28.958 80.4761 28.75L81.7111 30.427C81.4425 30.791 81.1045 31.116 80.6971 31.402C80.2898 31.688 79.7828 31.909 79.1761 32.065C78.5781 32.2297 77.8371 32.312 76.9531 32.312C75.7918 32.312 74.7821 32.0737 73.9241 31.597C73.0661 31.1203 72.3988 30.4487 71.9221 29.582C71.4541 28.7153 71.2201 27.7013 71.2201 26.54C71.2201 25.5 71.4368 24.564 71.8701 23.732C72.3035 22.8913 72.9318 22.2283 73.7551 21.743C74.5871 21.2577 75.5838 21.015 76.7451 21.015C77.8285 21.015 78.7688 21.2317 79.5661 21.665C80.3635 22.0983 80.9788 22.7223 81.4121 23.537C81.8541 24.343 82.0751 25.318 82.0751 26.462C82.0751 26.5313 82.0708 26.6743 82.0621 26.891C82.0621 27.1077 82.0535 27.2507 82.0361 27.32H73.8071ZM79.4751 25.292C79.4665 25.0147 79.3711 24.6983 79.1891 24.343C79.0158 23.9877 78.7341 23.68 78.3441 23.42C77.9541 23.1513 77.4341 23.017 76.7841 23.017C76.1168 23.017 75.5751 23.147 75.1591 23.407C74.7431 23.6583 74.4355 23.9617 74.2361 24.317C74.0368 24.6637 73.9198 24.9887 73.8851 25.292H79.4751ZM88.4171 21.015C89.0151 21.015 89.5698 21.0713 90.0811 21.184C90.5924 21.2967 91.0301 21.431 91.3941 21.587C91.7581 21.743 92.0094 21.873 92.1481 21.977L91.1341 23.693C90.9608 23.5457 90.6488 23.3767 90.1981 23.186C89.7561 22.9953 89.2578 22.9 88.7031 22.9C88.1484 22.9 87.6804 22.9997 87.2991 23.199C86.9178 23.3983 86.7271 23.6973 86.7271 24.096C86.7271 24.486 86.9264 24.798 87.3251 25.032C87.7324 25.266 88.2828 25.461 88.9761 25.617C89.5481 25.747 90.0941 25.929 90.6141 26.163C91.1341 26.3883 91.5588 26.7133 91.8881 27.138C92.2261 27.554 92.3951 28.113 92.3951 28.815C92.3951 29.4823 92.2521 30.0413 91.9661 30.492C91.6888 30.934 91.3161 31.2893 90.8481 31.558C90.3801 31.8267 89.8601 32.0173 89.2881 32.13C88.7248 32.2513 88.1571 32.312 87.5851 32.312C86.8831 32.312 86.2548 32.2427 85.7001 32.104C85.1541 31.9653 84.6991 31.805 84.3351 31.623C83.9711 31.4323 83.7111 31.272 83.5551 31.142L84.5691 29.218C84.7944 29.4347 85.1628 29.6643 85.6741 29.907C86.1854 30.141 86.7574 30.258 87.3901 30.258C88.0661 30.258 88.6078 30.128 89.0151 29.868C89.4224 29.608 89.6261 29.2613 89.6261 28.828C89.6261 28.5073 89.5264 28.2473 89.3271 28.048C89.1364 27.8487 88.8721 27.6883 88.5341 27.567C88.1961 27.4457 87.8191 27.3373 87.4031 27.242C87.0131 27.1467 86.6188 27.0253 86.2201 26.878C85.8301 26.722 85.4704 26.5227 85.1411 26.28C84.8118 26.0287 84.5474 25.7167 84.3481 25.344C84.1488 24.9713 84.0491 24.5337 84.0491 24.031C84.0491 23.3897 84.2528 22.8437 84.6601 22.393C85.0674 21.9423 85.6048 21.6 86.2721 21.366C86.9394 21.132 87.6544 21.015 88.4171 21.015Z" fill="#08B463"/>
</svg>
