<svg width="28" height="23" viewBox="0 0 28 23" fill="none" xmlns="http://www.w3.org/2000/svg">
<g clip-path="url(#clip0_5333_3749)">
<path d="M0.828125 11.9023C1.1707 11.4665 1.44254 11.4475 1.85469 11.8511C3.06307 13.0333 4.26618 14.2207 5.47222 15.4046C5.58563 15.5162 5.70548 15.622 5.85747 15.7629C6.04221 15.1965 6.17901 14.6681 6.38654 14.1678C6.74257 13.3099 7.11905 12.4589 7.53237 11.6263C7.81064 11.0657 8.28241 10.7063 8.90794 10.5045C9.83512 10.2055 10.7266 9.80931 11.4837 9.18371C11.6953 9.00891 11.8818 8.79156 12.035 8.56443C12.2548 8.23668 12.4968 8.15331 12.8417 8.35226C13.0937 8.49716 13.3322 8.66851 13.5935 8.79386C15.7496 9.82771 17.8442 9.70121 19.8757 8.45576C19.9903 8.38561 20.1095 8.31373 20.2364 8.27406C20.4521 8.20621 20.6673 8.25393 20.7707 8.45691C21.1601 9.22396 21.8885 9.58333 22.6076 9.94156C23.084 10.1785 23.5833 10.3791 24.0884 10.5499C24.5759 10.7149 24.9302 11.0174 25.2114 11.4222C25.796 12.2611 26.1485 13.207 26.4823 14.1575C26.7109 14.8084 26.8793 15.48 27.1055 16.132C27.2645 16.5903 27.475 17.0307 27.6626 17.4792C27.6626 17.7282 27.6626 17.9778 27.6626 18.2267C27.6375 18.2975 27.6106 18.3676 27.5878 18.4389C27.2575 19.4549 26.5308 19.9874 25.4405 20.0133C25.3838 20.0144 25.3271 20.0248 25.2418 20.0334C25.2353 20.1507 25.2254 20.2622 25.2242 20.3744C25.219 21.1742 24.815 21.6543 24.0106 21.8015C23.8101 21.8383 23.6055 21.8533 23.4038 21.8855C21.7798 22.1436 20.1551 22.3995 18.5317 22.664C17.9103 22.7652 17.2917 22.8871 16.6721 22.9992C16.516 22.9992 16.3605 22.9992 16.2044 22.9992C16.1418 22.9774 16.081 22.9458 16.0167 22.936C13.7099 22.5686 11.4024 22.2052 9.09618 21.8337C8.85825 21.7952 8.61681 21.7354 8.397 21.6399C7.90944 21.4278 7.63643 21.0609 7.65104 20.5141C7.65513 20.3542 7.63467 20.1944 7.6259 20.0345C7.55867 20.023 7.52009 20.0092 7.48326 20.0115C5.9475 20.0961 4.74965 18.6028 5.37868 16.9882C5.41025 16.9077 5.35121 16.7513 5.28164 16.6811C4.63565 16.0302 3.97446 15.3937 3.3238 14.7468C2.48782 13.9165 1.65943 13.0805 0.828125 12.2473C0.828125 12.1323 0.828125 12.0173 0.828125 11.9023ZM15.8793 21.8676C15.8928 21.767 15.9086 21.7026 15.9092 21.6382C15.9115 20.0391 15.9086 18.4401 15.9162 16.841C15.9173 16.6386 15.8273 16.5874 15.6455 16.5587C14.108 16.3166 12.5717 16.0659 11.0353 15.8181C10.4589 15.7249 9.88364 15.6266 9.30606 15.5438C8.8296 15.4759 8.54315 15.7577 8.69924 16.1389C8.75127 16.2666 8.86936 16.3689 8.95822 16.4822C9.63869 17.3516 9.66383 18.459 8.97225 19.2307C8.73782 19.4923 8.63318 19.7459 8.67527 20.0771C8.68345 20.1432 8.67644 20.2111 8.67644 20.2778C8.67644 20.6624 8.7501 20.7464 9.12717 20.8056C10.8085 21.0707 12.4892 21.3381 14.1711 21.6037C14.7353 21.6934 15.3 21.7785 15.8793 21.8676ZM16.9772 21.859C17.0977 21.8475 17.1842 21.8435 17.2695 21.8303C19.3057 21.5054 21.3425 21.184 23.3775 20.8522C24.2439 20.7107 24.1994 20.8459 24.2047 19.896C24.2059 19.6729 24.1322 19.5159 23.9931 19.3348C23.775 19.0507 23.5686 18.7281 23.4716 18.39C23.2465 17.6092 23.4839 16.9111 24.0457 16.331C24.2257 16.1452 24.2474 15.9262 24.1538 15.7583C24.086 15.6364 23.8545 15.5944 23.6885 15.5386C23.6224 15.5162 23.5359 15.5501 23.4593 15.5622C21.3851 15.894 19.3116 16.2286 17.2356 16.5535C17.0158 16.588 16.9527 16.6737 16.9538 16.887C16.962 18.4475 16.9579 20.0081 16.9585 21.5686C16.9579 21.6532 16.969 21.7377 16.9772 21.859ZM13.4059 9.87083C13.4135 9.96456 13.4111 10.0019 13.4205 10.0364C13.8818 11.7591 14.3401 13.4824 14.8142 15.2017C14.8399 15.2954 14.9808 15.3977 15.0872 15.4248C15.9688 15.6525 16.8539 15.6484 17.7431 15.4449C17.9436 15.3989 18.0342 15.3224 18.0856 15.1281C18.4855 13.6078 18.8977 12.0903 19.3051 10.5718C19.363 10.355 19.418 10.1376 19.4904 9.85703C17.4379 10.7287 15.4403 10.7046 13.4059 9.87083ZM13.7286 15.2114C13.2451 13.4082 12.7804 11.674 12.3092 9.91453C12.2191 9.96111 12.1665 9.98123 12.1221 10.0129C11.2703 10.6155 10.3455 11.0904 9.35867 11.4256C8.85474 11.597 8.50105 11.8897 8.30814 12.3479C7.86559 13.3985 7.45403 14.4616 7.03311 15.5214C7.01324 15.5708 7.02084 15.6312 7.01265 15.7163C7.18219 15.7163 7.33711 15.7312 7.4856 15.7094C7.55049 15.6996 7.6335 15.6237 7.6563 15.5599C7.91411 14.8434 8.50164 14.4427 9.27098 14.5301C10.0438 14.618 10.812 14.7514 11.5807 14.8699C12.2712 14.9763 12.9598 15.089 13.7286 15.2114ZM19.1432 15.1994C19.325 15.1769 19.439 15.166 19.5518 15.1482C20.8596 14.9395 22.1662 14.7267 23.4739 14.522C24.262 14.399 24.9571 14.8204 25.2073 15.553C25.2283 15.6145 25.2874 15.7025 25.3371 15.7082C25.5043 15.7278 25.675 15.7157 25.8889 15.7157C25.8094 15.4518 25.7475 15.2327 25.6773 15.0154C25.3453 13.9913 24.9653 12.9873 24.39 12.0662C24.217 11.789 23.9808 11.6027 23.6593 11.4854C22.6163 11.1048 21.5991 10.6678 20.7111 9.98871C20.6778 9.96283 20.6275 9.95823 20.5562 9.93408C20.0862 11.6838 19.6226 13.4117 19.1432 15.1994ZM8.4309 17.8633C8.43266 17.2504 7.93516 16.7381 7.34003 16.7409C6.74023 16.7438 6.25033 17.2492 6.25033 17.8656C6.25033 18.4866 6.73789 18.9875 7.34003 18.984C7.94451 18.98 8.42915 18.482 8.4309 17.8633ZM26.6168 17.8754C26.6214 17.2561 26.1327 16.7404 25.5405 16.7392C24.9372 16.7381 24.4461 17.2343 24.4379 17.8518C24.4303 18.4665 24.9179 18.9783 25.5171 18.984C26.1216 18.9903 26.6127 18.4947 26.6168 17.8754Z" fill="#38B6FF"/>
<path d="M17.0197 0C17.4927 0.1656 17.9966 0.275425 18.4327 0.507725C19.9837 1.33285 20.7664 2.9601 20.4449 4.58218C20.1181 6.23013 18.7192 7.49685 16.987 7.7142C14.5088 8.0247 12.3353 6.20885 12.3517 3.84215C12.3639 2.08725 13.6436 0.5382 15.429 0.116725C15.5892 0.078775 15.7488 0.0391 15.909 0C16.279 0 16.6497 0 17.0197 0ZM16.3959 6.72692C18.0498 6.74935 19.4412 5.48492 19.4721 3.93185C19.5037 2.35865 18.1603 1.05167 16.4836 1.02465C14.8076 0.9982 13.4226 2.2563 13.3952 3.83122C13.3677 5.40097 14.7181 6.7045 16.3959 6.72692Z" fill="#38B6FF"/>
</g>
<defs>
<clipPath id="clip0_5333_3749">
<rect width="26.8333" height="23" fill="white" transform="translate(0.828125)"/>
</clipPath>
</defs>
</svg>
